<?xml version="1.0" encoding="UTF-8"?>
<svg version="1.1" xmlns="http://www.w3.org/2000/svg" width="3840" height="3840">
<path d="M0 0 C0.84099153 -0.00538554 1.68198305 -0.01077108 2.54845917 -0.01631981 C5.34724677 -0.0305491 8.14555804 -0.02350815 10.94436646 -0.01637268 C12.95885598 -0.02207891 14.97334227 -0.02904414 16.98782349 -0.03717041 C22.44657155 -0.05508974 27.90515874 -0.05393561 33.36392736 -0.04822803 C37.92646059 -0.04513417 42.48896302 -0.05123089 47.05149186 -0.05726677 C57.81821839 -0.0713066 68.58486557 -0.06975541 79.35159302 -0.05836487 C90.4465554 -0.0468862 101.54127599 -0.06095645 112.63620651 -0.08776134 C122.17361744 -0.10993776 131.71095258 -0.11655127 141.24838746 -0.11068493 C146.93950384 -0.10731858 152.63046528 -0.1097091 158.32155991 -0.12693596 C163.67492084 -0.14243368 169.0279244 -0.13841798 174.38127136 -0.11963081 C176.34117186 -0.11595268 178.30109899 -0.11903069 180.26097488 -0.1295166 C201.31403084 -0.23351962 201.31403084 -0.23351962 209.68704224 6.24705505 C210.1936438 6.8709613 210.70024536 7.49486755 211.22219849 8.13768005 C211.74684692 8.7512738 212.27149536 9.36486755 212.81204224 9.99705505 C216.6635325 16.24934164 217.72833734 21.92046355 217.67237854 29.10298157 C217.68045685 30.36446886 217.68045685 30.36446886 217.68869835 31.65144074 C217.70292764 34.45022834 217.69588669 37.2485396 217.68875122 40.04734802 C217.69445745 42.06183755 217.70142268 44.07632384 217.70954895 46.09080505 C217.72746828 51.54955311 217.72631415 57.00814031 217.72060657 62.46690893 C217.71751271 67.02944216 217.72360943 71.59194458 217.72964531 76.15447342 C217.74368514 86.92119996 217.74213395 97.68784714 217.73074341 108.45457458 C217.71926474 119.54953697 217.73333499 130.64425755 217.76013988 141.73918808 C217.7823163 151.27659901 217.78892981 160.81393415 217.78306347 170.35136902 C217.77969712 176.04248541 217.78208764 181.73344685 217.7993145 187.42454147 C217.81481222 192.77790241 217.81079652 198.13090597 217.79200935 203.48425293 C217.78833122 205.44415342 217.79140923 207.40408056 217.80189514 209.36395645 C217.90644209 230.52711857 217.90644209 230.52711857 211.39016724 238.7900238 C210.75723755 239.29662537 210.12430786 239.80322693 209.47219849 240.32518005 C208.84700317 240.84982849 208.22180786 241.37447693 207.57766724 241.9150238 C201.53451416 245.79623114 196.65868546 246.83008148 189.61372375 246.78208923 C188.76541955 246.78818034 187.91711534 246.79427144 187.04310495 246.80054712 C184.21358613 246.81713506 181.38451941 246.81240732 178.55496216 246.80760193 C176.52091506 246.81494475 174.48687213 246.8235316 172.45283508 246.83326721 C166.93618822 246.85547075 161.41969078 246.85841442 155.90300536 246.8565197 C151.29329935 246.85639993 146.68362492 246.86496675 142.0739277 246.87329721 C131.19551408 246.89252757 120.31717719 246.89541662 109.43875122 246.88865662 C98.22732132 246.88201768 87.01622058 246.90487533 75.80485743 246.94197035 C66.16980095 246.97268969 56.53485022 246.98402489 46.89974576 246.98013353 C41.1493277 246.97806816 35.39916574 246.98351267 29.64879417 247.00802612 C24.23875959 247.03032707 18.82925914 247.02838722 13.41922188 247.0080986 C11.43835407 247.00469439 9.45745007 247.00975215 7.47663116 247.02408218 C-13.51333204 247.16540422 -13.51333204 247.16540422 -21.59960651 239.63227081 C-27.50048105 233.47914653 -29.16602603 226.98344471 -29.10971069 218.71670532 C-29.1158018 217.86840112 -29.1218929 217.02009691 -29.12816858 216.14608651 C-29.14475652 213.3165677 -29.14002878 210.48750098 -29.13522339 207.65794373 C-29.14256621 205.62389663 -29.15115306 203.5898537 -29.16088867 201.55581665 C-29.18309221 196.03916978 -29.18603588 190.52267234 -29.18414116 185.00598693 C-29.18402139 180.39628092 -29.19258821 175.78660648 -29.20091867 171.17690927 C-29.22014903 160.29849564 -29.22303808 149.42015875 -29.21627808 138.54173279 C-29.20963914 127.33030289 -29.23249679 116.11920215 -29.26959181 104.907839 C-29.30031115 95.27278252 -29.31164635 85.63783179 -29.30775499 76.00272733 C-29.30568962 70.25230927 -29.31113413 64.50214731 -29.33564758 58.75177574 C-29.35794853 53.34174116 -29.35600868 47.93224071 -29.33572006 42.52220345 C-29.33231585 40.54133563 -29.33737361 38.56043163 -29.35170364 36.57961273 C-29.49232212 15.69414598 -29.49232212 15.69414598 -21.98918915 7.50337505 C-15.79979429 1.44348342 -8.35011247 -0.0650555 0 0 Z " fill="#369F32" transform="translate(1824.7153015136719,1710.612319946289)"/>
<path d="M0 0 C0.84830421 -0.0060911 1.69660841 -0.01218221 2.57061881 -0.01845789 C5.40013762 -0.03504583 8.22920434 -0.03031808 11.0587616 -0.0255127 C13.09280869 -0.03285551 15.12685162 -0.04144236 17.16088867 -0.05117798 C22.67753554 -0.07338152 28.19403298 -0.07632518 33.71071839 -0.07443047 C38.32042441 -0.0743107 42.93009884 -0.08287752 47.53979605 -0.09120798 C58.41820968 -0.11043833 69.29654657 -0.11332738 80.17497253 -0.10656738 C91.38640243 -0.09992844 102.59750318 -0.12278609 113.80886632 -0.15988111 C123.4439228 -0.19060046 133.07887353 -0.20193565 142.71397799 -0.1980443 C148.46439605 -0.19597893 154.21455802 -0.20142344 159.96492958 -0.22593689 C165.37496416 -0.24823783 170.78446461 -0.24629799 176.19450188 -0.22600937 C178.17536969 -0.22260516 180.15627369 -0.22766292 182.13709259 -0.24199295 C203.02255935 -0.38261142 203.02255935 -0.38261142 211.21333027 7.12052155 C217.2732219 13.30991641 218.78176082 20.75959823 218.71670532 29.10971069 C218.72478363 30.37119798 218.72478363 30.37119798 218.73302513 31.65816987 C218.74725442 34.45695746 218.74021347 37.25526873 218.733078 40.05407715 C218.73878423 42.06856667 218.74574947 44.08305296 218.75387573 46.09753418 C218.77179506 51.55628224 218.77064093 57.01486944 218.76493335 62.47363806 C218.76183949 67.03617129 218.76793621 71.59867371 218.77397209 76.16120255 C218.78801193 86.92792908 218.78646074 97.69457626 218.77507019 108.46130371 C218.76359152 119.55626609 218.77766177 130.65098668 218.80446666 141.7459172 C218.82664308 151.28332813 218.83325659 160.82066327 218.82739025 170.35809815 C218.8240239 176.04921454 218.82641442 181.74017597 218.84364128 187.4312706 C218.859139 192.78463153 218.8551233 198.13763509 218.83633614 203.49098206 C218.832658 205.45088255 218.83573601 207.41080968 218.84622192 209.37068558 C218.95022495 230.42374153 218.95022495 230.42374153 212.46965027 238.79675293 C211.84574402 239.30335449 211.22183777 239.80995605 210.57902527 240.33190918 C209.96543152 240.85655762 209.35183777 241.38120605 208.71965027 241.92175293 C202.46736368 245.7732432 196.79624177 246.83804804 189.61372375 246.78208923 C188.77273223 246.78747477 187.9317407 246.79286031 187.06526458 246.79840904 C184.26647698 246.81263833 181.46816572 246.80559738 178.6693573 246.79846191 C176.65486778 246.80416814 174.64038148 246.81113338 172.62590027 246.81925964 C167.16715221 246.83717897 161.70856501 246.83602484 156.24979639 246.83031726 C151.68726316 246.8272234 147.12476074 246.83332012 142.5622319 246.83935601 C131.79550537 246.85339584 121.02885819 246.85184465 110.26213074 246.8404541 C99.16716835 246.82897543 88.07244777 246.84304568 76.97751725 246.86985058 C67.44010632 246.89202699 57.90277118 246.8986405 48.3653363 246.89277416 C42.67421991 246.88940781 36.98325848 246.89179833 31.29216385 246.90902519 C25.93880292 246.92452291 20.58579935 246.92050721 15.23245239 246.90172005 C13.2725519 246.89804191 11.31262476 246.90111993 9.35274887 246.91160583 C-11.81041325 247.01615279 -11.81041325 247.01615279 -20.07331848 240.49987793 C-20.57992004 239.86694824 -21.08652161 239.23401855 -21.60847473 238.58190918 C-22.13312317 237.95671387 -22.65777161 237.33151855 -23.19831848 236.68737793 C-27.07952582 230.64422486 -28.11337616 225.76839615 -28.06538391 218.72343445 C-28.07147501 217.87513024 -28.07756612 217.02682603 -28.0838418 216.15281564 C-28.10042974 213.32329683 -28.09570199 210.4942301 -28.09089661 207.66467285 C-28.09823943 205.63062576 -28.10682627 203.59658283 -28.11656189 201.56254578 C-28.13876543 196.04589891 -28.1417091 190.52940147 -28.13981438 185.01271605 C-28.13969461 180.40301004 -28.14826143 175.79333561 -28.15659189 171.18363839 C-28.17582224 160.30522477 -28.17871129 149.42688788 -28.17195129 138.54846191 C-28.16531235 127.33703202 -28.18817 116.12593127 -28.22526503 104.91456813 C-28.25598437 95.27951164 -28.26731957 85.64456092 -28.26342821 76.00945646 C-28.26136284 70.2590384 -28.26680735 64.50887643 -28.2913208 58.75850487 C-28.31362174 53.34847028 -28.3116819 47.93896983 -28.29139328 42.52893257 C-28.28798907 40.54806476 -28.29304683 38.56716076 -28.30737686 36.58634186 C-28.44869889 15.59637866 -28.44869889 15.59637866 -20.91556549 7.51010418 C-14.76244121 1.60922964 -8.26673939 -0.05631534 0 0 Z " fill="#36A032" transform="translate(1823.6709747314453,1124.6055908203125)"/>
<path d="M0 0 C0.84240266 -0.00467997 1.68480532 -0.00935994 2.55273533 -0.01418173 C5.35620247 -0.02608235 8.1591763 -0.01669392 10.96264648 -0.00723267 C12.98038008 -0.01130056 14.99811145 -0.01664366 17.01583862 -0.02316284 C22.48272561 -0.03681629 27.94944236 -0.03154587 33.41633224 -0.02202559 C39.14344484 -0.01441881 44.87054307 -0.02147743 50.59765625 -0.02618408 C60.21446341 -0.03163866 69.8312014 -0.0244578 79.44799805 -0.01016235 C90.55887044 0.00616355 101.66957766 0.00087483 112.78044605 -0.01564157 C122.32801379 -0.02926489 131.87553187 -0.03117194 141.42310619 -0.02332556 C147.12195225 -0.01865372 152.82072073 -0.01801081 158.51956177 -0.02793503 C163.87779581 -0.03661467 169.23581734 -0.03056439 174.59402847 -0.01325226 C176.55799126 -0.00929277 178.52197199 -0.01041223 180.48592758 -0.01704025 C183.17168491 -0.02526709 185.85676595 -0.0149205 188.54248047 0 C189.31525613 -0.00669217 190.08803179 -0.01338433 190.88422489 -0.02027929 C198.64612272 0.06306596 204.9726847 2.41515338 210.73217773 7.70126343 C216.52601318 14.02448485 217.42036054 20.33581703 217.41841125 28.61523438 C217.42208794 29.4528082 217.42576463 30.29038203 217.42955273 31.15333688 C217.44057973 33.96440323 217.44443176 36.7754326 217.44824219 39.58651733 C217.45450762 41.6004142 217.46115449 43.6143099 217.46815491 45.62820435 C217.48918956 52.24629919 217.49955727 58.86439426 217.50952148 65.48251343 C217.51356937 67.7618651 217.5176863 70.04121666 217.52187157 72.32056808 C217.54092253 83.03026056 217.55515333 93.73994615 217.56348354 104.44965231 C217.57325367 116.80620386 217.59956788 129.16257615 217.63998443 141.51906455 C217.67016128 151.07336408 217.68495394 160.62761229 217.68826455 170.18195856 C217.69061338 175.88657037 217.69955228 181.59099067 217.72472572 187.2955513 C217.74803851 192.66524417 217.75222665 198.03461988 217.74196434 203.40435028 C217.74146964 205.37070904 217.74777056 207.33708357 217.76152039 209.30339432 C217.90146266 230.50963796 217.90146266 230.50963796 211.37670898 238.78329468 C210.7437793 239.28989624 210.11084961 239.7964978 209.45874023 240.31845093 C208.83354492 240.84309937 208.20834961 241.3677478 207.56420898 241.90829468 C201.52105591 245.78950202 196.64522721 246.82335236 189.6002655 246.77536011 C188.7519613 246.78145121 187.90365709 246.78754231 187.02964669 246.793818 C184.20012788 246.81040593 181.37106116 246.80567819 178.54150391 246.8008728 C176.50745681 246.80821562 174.47341388 246.81680247 172.43937683 246.82653809 C166.92272996 246.84874163 161.40623252 246.85168529 155.88954711 246.84979057 C151.2798411 246.84967081 146.67016666 246.85823762 142.06046945 246.86656809 C131.18205582 246.88579844 120.30371893 246.88868749 109.42529297 246.88192749 C98.21386307 246.87528855 87.00276233 246.8981462 75.79139918 246.93524122 C66.1563427 246.96596056 56.52139197 246.97729576 46.88628751 246.97340441 C41.13586945 246.97133904 35.38570749 246.97678354 29.63533592 247.001297 C24.22530134 247.02359794 18.81580089 247.02165809 13.40576363 247.00136948 C11.42489582 246.99796526 9.44399181 247.00302303 7.46317291 247.01735306 C-4.01791449 247.09465337 -12.94896676 247.01991338 -22.16625977 239.35360718 C-22.68188477 238.72325562 -23.19750977 238.09290405 -23.72875977 237.44345093 C-24.26500977 236.81567749 -24.80125977 236.18790405 -25.35375977 235.54110718 C-28.71713699 230.25716512 -29.02170653 224.93857166 -29.00291443 218.83023071 C-29.00815111 217.98278093 -29.01338779 217.13533115 -29.01878315 216.26220107 C-29.03375467 213.42966595 -29.03448768 210.59731193 -29.03515625 207.76473999 C-29.04277967 205.73084204 -29.05120748 203.69694698 -29.06037903 201.66305542 C-29.08231342 196.14224862 -29.09112158 190.6214972 -29.09620547 185.10065174 C-29.09985043 181.64949959 -29.10609124 178.1983619 -29.11320686 174.74721527 C-29.13769811 162.70161808 -29.15075247 150.65606393 -29.15429688 138.61044312 C-29.15793141 127.39166246 -29.18782193 116.1731555 -29.22970146 104.95445848 C-29.26442035 95.31518565 -29.2798456 85.67600346 -29.28054291 76.03666854 C-29.2813352 70.28286846 -29.29005214 64.52934722 -29.31854057 58.77561188 C-29.34474819 53.36150552 -29.34691107 47.94790863 -29.33088493 42.5337677 C-29.32907258 40.5512811 -29.33574173 38.56876503 -29.35170364 36.58634186 C-29.5096334 15.69118878 -29.5096334 15.69118878 -22.00258541 7.49670792 C-15.80758815 1.43085201 -8.35694538 -0.07237037 0 0 Z " fill="#369F32" transform="translate(1531.728759765625,1710.6190490722656)"/>
<path d="M0 0 C0.84830421 -0.0060911 1.69660841 -0.01218221 2.57061881 -0.01845789 C5.40013762 -0.03504583 8.22920434 -0.03031808 11.0587616 -0.0255127 C13.09280869 -0.03285551 15.12685162 -0.04144236 17.16088867 -0.05117798 C22.67753554 -0.07338152 28.19403298 -0.07632518 33.71071839 -0.07443047 C38.32042441 -0.0743107 42.93009884 -0.08287752 47.53979605 -0.09120798 C58.41820968 -0.11043833 69.29654657 -0.11332738 80.17497253 -0.10656738 C91.38640243 -0.09992844 102.59750318 -0.12278609 113.80886632 -0.15988111 C123.4439228 -0.19060046 133.07887353 -0.20193565 142.71397799 -0.1980443 C148.46439605 -0.19597893 154.21455802 -0.20142344 159.96492958 -0.22593689 C165.37496416 -0.24823783 170.78446461 -0.24629799 176.19450188 -0.22600937 C178.17536969 -0.22260516 180.15627369 -0.22766292 182.13709259 -0.24199295 C203.02255935 -0.38261142 203.02255935 -0.38261142 211.21333027 7.12052155 C217.27898176 13.31579936 218.78234771 20.76609066 218.7099762 29.12316895 C218.71465617 29.9655716 218.71933614 30.80797426 218.72415793 31.67590427 C218.73605855 34.47937142 218.72667011 37.28234525 218.71720886 40.08581543 C218.72127675 42.10354903 218.72661986 44.1212804 218.73313904 46.13900757 C218.74679248 51.60589455 218.74152207 57.07261131 218.73200178 62.53950119 C218.72439501 68.26661378 218.73145363 73.99371202 218.73616028 79.7208252 C218.74161485 89.33763235 218.734434 98.95437034 218.72013855 108.57116699 C218.70381265 119.68203938 218.70910137 130.79274661 218.72561777 141.903615 C218.73924109 151.45118274 218.74114814 160.99870082 218.73330176 170.54627514 C218.72862992 176.24512119 218.72798701 181.94388967 218.73791122 187.64273071 C218.74659087 193.00096475 218.74054059 198.35898628 218.72322845 203.71719742 C218.71926897 205.6811602 218.72038842 207.64514094 218.72701645 209.60909653 C218.73524329 212.29485385 218.7248967 214.97993489 218.7099762 217.66564941 C218.71666836 218.43842507 218.72336053 219.21120073 218.73025548 220.00739384 C218.64691024 227.76929167 216.29482281 234.09585365 211.00871277 239.85534668 C204.68549134 245.64918212 198.37415916 246.54352949 190.09474182 246.5415802 C189.25716799 246.54525689 188.41959417 246.54893358 187.55663931 246.55272168 C184.74557296 246.56374868 181.93454359 246.56760071 179.12345886 246.57141113 C177.109562 246.57767657 175.09566629 246.58432344 173.08177185 246.59132385 C166.463677 246.61235851 159.84558194 246.62272622 153.22746277 246.63269043 C150.94811109 246.63673831 148.66875954 246.64085525 146.38940811 246.64504051 C135.67971563 246.66409147 124.97003005 246.67832228 114.26032388 246.68665248 C101.90377234 246.69642261 89.54740004 246.72273682 77.19091165 246.76315337 C67.63661211 246.79333023 58.08236391 246.80812289 48.52801764 246.81143349 C42.82340583 246.81378233 37.11898552 246.82272122 31.4144249 246.84789467 C26.04473202 246.87120746 20.67535632 246.87539559 15.30562592 246.86513329 C13.33926716 246.86463859 11.37289262 246.8709395 9.40658188 246.88468933 C-11.79966176 247.0246316 -11.79966176 247.0246316 -20.07331848 240.49987793 C-20.57992004 239.86694824 -21.08652161 239.23401855 -21.60847473 238.58190918 C-22.13312317 237.95671387 -22.65777161 237.33151855 -23.19831848 236.68737793 C-27.08243781 230.6396908 -28.11278356 225.76679749 -28.05865479 218.71670532 C-28.06404032 217.86769555 -28.06942586 217.01868578 -28.0749746 216.14394844 C-28.08922963 213.31208411 -28.08215651 210.48068884 -28.07502747 207.64880371 C-28.08073234 205.61313502 -28.08769706 203.57746954 -28.0958252 201.54180908 C-28.11375948 196.02108803 -28.11258757 190.50052591 -28.10688281 184.97978449 C-28.10379109 180.36750072 -28.10988329 175.75524748 -28.11592156 171.14296806 C-28.12996632 160.25979627 -28.12840611 149.37670298 -28.11701965 138.49353027 C-28.10554068 127.27416972 -28.11961062 116.05504827 -28.14641613 104.83571923 C-28.16858437 95.19558503 -28.17520789 85.55552583 -28.16933972 75.91536796 C-28.16597139 70.161112 -28.16837705 64.40700928 -28.18559074 58.65277481 C-28.20107539 53.24033564 -28.1970872 47.82825017 -28.1782856 42.41582489 C-28.17460384 40.4329294 -28.1776961 38.45000762 -28.18817139 36.46713638 C-28.20141148 33.75304602 -28.18980728 31.0401214 -28.17218018 28.32608032 C-28.18178518 27.54775349 -28.19139019 26.76942665 -28.20128626 25.96751416 C-28.11183254 19.23955399 -26.07631023 13.32048741 -21.77644348 8.08972168 C-21.14351379 7.57151855 -20.51058411 7.05331543 -19.85847473 6.51940918 C-19.23327942 5.9857373 -18.60808411 5.45206543 -17.96394348 4.90222168 C-11.9591492 0.95358353 -7.0377004 -0.04794278 0 0 Z " fill="#36A033" transform="translate(1530.6709747314453,1124.6055908203125)"/>
<path d="M0 0 C0.84900977 -0.00538554 1.69801955 -0.01077108 2.57275689 -0.01631981 C5.40462122 -0.03057485 8.23601648 -0.02350173 11.06790161 -0.01637268 C13.1035703 -0.02207756 15.13923579 -0.02904228 17.17489624 -0.03717041 C22.69561729 -0.0551047 28.21617941 -0.05393278 33.73692083 -0.04822803 C38.3492046 -0.04513631 42.96145784 -0.05122851 47.57373726 -0.05726677 C58.45690905 -0.07131154 69.34000235 -0.06975133 80.22317505 -0.05836487 C91.4425356 -0.0468859 102.66165705 -0.06095584 113.88098609 -0.08776134 C123.52112029 -0.10992958 133.16117949 -0.1165531 142.80133736 -0.11068493 C148.55559332 -0.1073166 154.30969604 -0.10972226 160.06393051 -0.12693596 C165.47636968 -0.1424206 170.88845516 -0.13843242 176.30088043 -0.11963081 C178.28377592 -0.11594905 180.2666977 -0.11904131 182.24956894 -0.1295166 C184.9636593 -0.14275669 187.67658392 -0.1311525 190.390625 -0.11352539 C191.16895183 -0.1231304 191.94727867 -0.1327354 192.74919116 -0.14263147 C199.47715133 -0.05317776 205.39621791 1.98234456 210.62698364 6.2822113 C211.14518677 6.91514099 211.66338989 7.54807068 212.19729614 8.20018005 C212.73096802 8.82537537 213.26463989 9.45057068 213.81448364 10.0947113 C217.75545717 16.0878498 218.7642214 20.99670963 218.7099762 28.02069092 C218.7180545 29.2870219 218.7180545 29.2870219 218.72629601 30.57893533 C218.74055024 33.39464702 218.7334781 36.2098869 218.72634888 39.02561951 C218.73205384 41.04981361 218.73901859 43.07400449 218.74714661 45.09819031 C218.7650811 50.58798801 218.7639088 56.07762589 218.75820422 61.56744409 C218.75511217 66.15478037 218.76120516 70.74208597 218.76724297 75.32941788 C218.78128815 86.15509833 218.77972752 96.98069986 218.76834106 107.80638123 C218.75686535 118.96323833 218.77092645 130.11985489 218.79773754 141.27668029 C218.81991411 150.86502596 218.82652733 160.45329624 218.82066113 170.04166573 C218.81729439 175.76409583 218.8196877 181.48637183 218.83691216 187.20878029 C218.85240982 192.59249598 218.84839422 197.97585631 218.82960701 203.35955811 C218.82592867 205.33074566 218.82900747 207.30195969 218.8394928 209.27312279 C218.94334132 230.41721202 218.94334132 230.41721202 212.46292114 238.7900238 C211.83901489 239.29662537 211.21510864 239.80322693 210.57229614 240.32518005 C209.95870239 240.84982849 209.34510864 241.37447693 208.71292114 241.9150238 C202.45354156 245.77088345 196.7837427 246.8308975 189.59353638 246.76863098 C188.75113372 246.77331095 187.90873106 246.77799093 187.04080105 246.78281271 C184.2373339 246.79471333 181.43436007 246.7853249 178.63088989 246.77586365 C176.61315629 246.77993154 174.59542492 246.78527464 172.57769775 246.79179382 C167.11081077 246.80544727 161.64409402 246.80017685 156.17720413 246.79065657 C150.45009154 246.7830498 144.72299331 246.79010841 138.99588013 246.79481506 C129.37907297 246.80026964 119.76233498 246.79308879 110.14553833 246.77879333 C99.03466594 246.76246744 87.92395871 246.76775615 76.81309032 246.78427255 C67.26552258 246.79789587 57.7180045 246.79980293 48.17043018 246.79195654 C42.47158413 246.7872847 36.77281565 246.78664179 31.07397461 246.79656601 C25.71574057 246.80524565 20.35771904 246.79919537 14.9995079 246.78188324 C13.03554512 246.77792375 11.07156439 246.77904321 9.1076088 246.78567123 C6.42185147 246.79389807 3.73677043 246.78355148 1.05105591 246.76863098 C0.27828025 246.77532315 -0.49449541 246.78201531 -1.29068851 246.78891027 C-8.23476253 246.7143466 -14.53887035 244.93285912 -19.92770386 240.32518005 C-20.55161011 239.81857849 -21.17551636 239.31197693 -21.81832886 238.7900238 C-29.23993236 229.20118734 -28.24731029 217.99898934 -28.19528198 206.5009613 C-28.20070824 204.48617549 -28.20783373 202.47139365 -28.21652222 200.45661926 C-28.23469842 195.00620091 -28.22771155 189.55608671 -28.21500587 184.1056633 C-28.20484865 178.39017188 -28.21427911 172.67470575 -28.22055054 166.95921326 C-28.22781901 157.36273036 -28.2182602 147.76637077 -28.19918823 138.16990662 C-28.17742111 127.08966216 -28.18447304 116.00971216 -28.20649385 104.92947483 C-28.22467061 95.4005078 -28.22719503 85.87162919 -28.21673918 76.34265041 C-28.21051679 70.65828058 -28.20963412 64.97404896 -28.22288513 59.28968811 C-28.23447609 53.94449263 -28.22635849 48.59967524 -28.20330811 43.25452042 C-28.19803836 41.29784903 -28.19950493 39.3411456 -28.20835876 37.38448715 C-28.29517324 16.24282164 -28.29517324 16.24282164 -21.78317261 7.9853363 C-21.15024292 7.47873474 -20.51731323 6.97213318 -19.86520386 6.45018005 C-19.24000854 5.92553162 -18.61481323 5.40088318 -17.97067261 4.8603363 C-11.92298548 0.97621697 -7.05009217 -0.05412878 0 0 Z " fill="#369F32" transform="translate(2116.677703857422,831.6123199462891)"/>
<path d="M0 0 C1.27117467 -0.00785502 1.27117467 -0.00785502 2.56802964 -0.01586872 C5.40056477 -0.03084024 8.23291879 -0.03157325 11.06549072 -0.03224182 C13.09938867 -0.03986524 15.13328374 -0.04829305 17.16717529 -0.0574646 C22.6879821 -0.07939899 28.20873352 -0.08820715 33.72957897 -0.09329104 C37.18073113 -0.096936 40.63186881 -0.10317681 44.08301544 -0.11029243 C56.12861263 -0.13478369 68.17416678 -0.14783804 80.2197876 -0.15138245 C91.43856826 -0.15501698 102.65707522 -0.1849075 113.87577224 -0.22678703 C123.51504506 -0.26150592 133.15422725 -0.27693117 142.79356217 -0.27762848 C148.54736225 -0.27842077 154.3008835 -0.28713771 160.05461884 -0.31562614 C165.4687252 -0.34183377 170.88232208 -0.34399665 176.29646301 -0.3279705 C178.27894961 -0.32615816 180.26146569 -0.3328273 182.24388885 -0.34878922 C203.13904193 -0.50671898 203.13904193 -0.50671898 211.3335228 7.00032902 C217.39937871 13.19532628 218.90260108 20.64596905 218.83023071 29.00291443 C218.83491068 29.84531709 218.83959066 30.68771975 218.84441245 31.55564976 C218.85631307 34.3591169 218.84692463 37.16209073 218.83746338 39.96556091 C218.84153127 41.98329451 218.84687437 44.00102588 218.85339355 46.01875305 C218.867047 51.48564003 218.86177659 56.95235679 218.8522563 62.41924667 C218.84464953 68.14635927 218.85170814 73.8734575 218.85641479 79.60057068 C218.86186937 89.21737784 218.85468852 98.83411583 218.84039307 108.45091248 C218.82406717 119.56178487 218.82935588 130.67249209 218.84587228 141.78336048 C218.8594956 151.33092822 218.86140266 160.8784463 218.85355628 170.42602062 C218.84888443 176.12486668 218.84824152 181.82363516 218.85816574 187.5224762 C218.86684538 192.88071023 218.8607951 198.23873177 218.84348297 203.5969429 C218.83952349 205.56090569 218.84064294 207.52488642 218.84727097 209.48884201 C218.8554978 212.17459933 218.84515121 214.85968038 218.83023071 217.5453949 C218.83692288 218.31817056 218.84361504 219.09094622 218.85051 219.88713932 C218.76716475 227.64903715 216.41507733 233.97559913 211.12896729 239.73509216 C204.80574586 245.52892761 198.49441368 246.42327497 190.21499634 246.42132568 C189.37742251 246.42500237 188.53984868 246.42867906 187.67689383 246.43246716 C184.86582748 246.44349416 182.05479811 246.44734619 179.24371338 246.45115662 C177.22981652 246.45742205 175.21592081 246.46406892 173.20202637 246.47106934 C166.58393152 246.49210399 159.96583646 246.5024717 153.34771729 246.51243591 C151.06836561 246.5164838 148.78901406 246.52060073 146.50966263 246.524786 C135.79997015 246.54383696 125.09028456 246.55806776 114.3805784 246.56639796 C102.02402686 246.5761681 89.66765456 246.6024823 77.31116617 246.64289886 C67.75686663 246.67307571 58.20261842 246.68786837 48.64827216 246.69117898 C42.94366034 246.69352781 37.23924004 246.7024667 31.53467941 246.72764015 C26.16498654 246.75095294 20.79561084 246.75514107 15.42588043 246.74487877 C13.45952168 246.74438407 11.49314714 246.75068499 9.5268364 246.76443481 C-11.67940725 246.90437708 -11.67940725 246.90437708 -19.95306396 240.37962341 C-20.45966553 239.74669373 -20.96626709 239.11376404 -21.48822021 238.46165466 C-22.01286865 237.83645935 -22.53751709 237.21126404 -23.07806396 236.56712341 C-26.9592713 230.52397034 -27.99312164 225.64814164 -27.94512939 218.60317993 C-27.9512205 217.75487572 -27.9573116 216.90657152 -27.96358728 216.03256112 C-27.98017522 213.20304231 -27.97544748 210.37397559 -27.97064209 207.54441833 C-27.97798491 205.51037124 -27.98657176 203.47632831 -27.99630737 201.44229126 C-28.01851091 195.92564439 -28.02145458 190.40914695 -28.01955986 184.89246154 C-28.01944009 180.28275553 -28.02800691 175.67308109 -28.03633738 171.06338388 C-28.05556773 160.18497025 -28.05845678 149.30663336 -28.05169678 138.4282074 C-28.04505784 127.2167775 -28.06791549 116.00567676 -28.10501051 104.79431361 C-28.13572985 95.15925713 -28.14706505 85.5243064 -28.14317369 75.88920194 C-28.14110833 70.13878388 -28.14655283 64.38862192 -28.17106628 58.63825035 C-28.19336723 53.22821577 -28.19142738 47.81871532 -28.17113876 42.40867805 C-28.16773455 40.42781024 -28.17279231 38.44690624 -28.18712234 36.46608734 C-28.26442265 24.98499993 -28.18968267 16.05394767 -20.52337646 6.83665466 C-19.8930249 6.32102966 -19.26267334 5.80540466 -18.61322021 5.27415466 C-17.98544678 4.73790466 -17.35767334 4.20165466 -16.71087646 3.64915466 C-11.42693441 0.28577744 -6.10834094 -0.0187921 0 0 Z " fill="#36A032" transform="translate(1823.5507202148438,831.7258453369141)"/>
<path d="M0 0 C0.84099153 -0.00538554 1.68198305 -0.01077108 2.54845917 -0.01631981 C5.34724677 -0.0305491 8.14555804 -0.02350815 10.94436646 -0.01637268 C12.95885598 -0.02207891 14.97334227 -0.02904414 16.98782349 -0.03717041 C22.44657155 -0.05508974 27.90515874 -0.05393561 33.36392736 -0.04822803 C37.92646059 -0.04513417 42.48896302 -0.05123089 47.05149186 -0.05726677 C57.81821839 -0.0713066 68.58486557 -0.06975541 79.35159302 -0.05836487 C90.4465554 -0.0468862 101.54127599 -0.06095645 112.63620651 -0.08776134 C122.17361744 -0.10993776 131.71095258 -0.11655127 141.24838746 -0.11068493 C146.93950384 -0.10731858 152.63046528 -0.1097091 158.32155991 -0.12693596 C163.67492084 -0.14243368 169.0279244 -0.13841798 174.38127136 -0.11963081 C176.34117186 -0.11595268 178.30109899 -0.11903069 180.26097488 -0.1295166 C201.42413701 -0.23406355 201.42413701 -0.23406355 209.68704224 6.2822113 C210.1936438 6.91514099 210.70024536 7.54807068 211.22219849 8.20018005 C211.74684692 8.82537537 212.27149536 9.45057068 212.81204224 10.0947113 C216.69324958 16.13786438 217.72709991 21.01369308 217.67910767 28.05865479 C217.68519877 28.90695899 217.69128987 29.7552632 217.69756556 30.62927359 C217.71415349 33.45879241 217.70942575 36.28785913 217.70462036 39.11741638 C217.71196318 41.15146348 217.72055003 43.18550641 217.73028564 45.21954346 C217.75248918 50.73619032 217.75543285 56.25268776 217.75353813 61.76937318 C217.75341836 66.37907919 217.76198518 70.98875362 217.77031565 75.59845084 C217.789546 86.47686446 217.79243505 97.35520135 217.78567505 108.23362732 C217.77903611 119.44505722 217.80189376 130.65615796 217.83898878 141.86752111 C217.86970812 151.50257759 217.88104332 161.13752832 217.87715197 170.77263278 C217.8750866 176.52305084 217.8805311 182.2732128 217.90504456 188.02358437 C217.9273455 193.43361895 217.92540565 198.8431194 217.90511703 204.25315666 C217.90171282 206.23402447 217.90677058 208.21492847 217.92110062 210.19574738 C218.06171909 231.08121413 218.06171909 231.08121413 210.55858612 239.27198505 C204.36919126 245.33187669 196.91950944 246.84041561 188.56939697 246.77536011 C187.72840545 246.78074565 186.88741392 246.78613118 186.0209378 246.79167992 C183.2221502 246.80590921 180.42383894 246.79886826 177.62503052 246.79173279 C175.61054099 246.79743901 173.5960547 246.80440425 171.58157349 246.81253052 C166.12282543 246.83044985 160.66423823 246.82929571 155.20546961 246.82358813 C150.64293638 246.82049428 146.08043396 246.82659099 141.51790512 246.83262688 C130.75117858 246.84666671 119.9845314 246.84511552 109.21780396 246.83372498 C98.12284157 246.82224631 87.02812099 246.83631656 75.93319046 246.86312145 C66.39577953 246.88529787 56.85844439 246.89191138 47.32100952 246.88604504 C41.62989313 246.88267869 35.93893169 246.88506921 30.24783707 246.90229607 C24.89447613 246.91779379 19.54147257 246.91377808 14.18812561 246.89499092 C12.22822512 246.89131278 10.26829798 246.8943908 8.30842209 246.90487671 C-12.74463386 247.00887973 -12.74463386 247.00887973 -21.11764526 240.52830505 C-21.87754761 239.59244568 -21.87754761 239.59244568 -22.65280151 238.63768005 C-23.43977417 237.71728943 -23.43977417 237.71728943 -24.24264526 236.77830505 C-28.09413553 230.52601847 -29.15894037 224.85489655 -29.10298157 217.67237854 C-29.10836711 216.83138701 -29.11375264 215.99039549 -29.11930138 215.12391937 C-29.13353067 212.32513177 -29.12648972 209.5268205 -29.11935425 206.72801208 C-29.12506047 204.71352256 -29.13202571 202.69903627 -29.14015198 200.68455505 C-29.15807131 195.22580699 -29.15691717 189.7672198 -29.15120959 184.30845118 C-29.14811574 179.74591795 -29.15421245 175.18341552 -29.16024834 170.62088668 C-29.17428817 159.85416015 -29.17273698 149.08751297 -29.16134644 138.32078552 C-29.14986777 127.22582314 -29.16393802 116.13110255 -29.19074291 105.03617203 C-29.21291933 95.4987611 -29.21953284 85.96142596 -29.2136665 76.42399108 C-29.21030015 70.7328747 -29.21269067 65.04191326 -29.22991753 59.35081863 C-29.24541525 53.9974577 -29.24139954 48.64445414 -29.22261238 43.29110718 C-29.21893424 41.33120668 -29.22201226 39.37127955 -29.23249817 37.41140366 C-29.33650119 16.3583477 -29.33650119 16.3583477 -22.85592651 7.9853363 C-22.23202026 7.47873474 -21.60811401 6.97213318 -20.96530151 6.45018005 C-20.35170776 5.92553162 -19.73811401 5.40088318 -19.10592651 4.8603363 C-12.85363993 1.00884604 -7.18251801 -0.0559588 0 0 Z " fill="#37A032" transform="translate(2117.715301513672,1417.612319946289)"/>
<path d="M0 0 C0.84099153 -0.00538554 1.68198305 -0.01077108 2.54845917 -0.01631981 C5.34724677 -0.0305491 8.14555804 -0.02350815 10.94436646 -0.01637268 C12.95885598 -0.02207891 14.97334227 -0.02904414 16.98782349 -0.03717041 C22.44657155 -0.05508974 27.90515874 -0.05393561 33.36392736 -0.04822803 C37.92646059 -0.04513417 42.48896302 -0.05123089 47.05149186 -0.05726677 C57.81821839 -0.0713066 68.58486557 -0.06975541 79.35159302 -0.05836487 C90.4465554 -0.0468862 101.54127599 -0.06095645 112.63620651 -0.08776134 C122.17361744 -0.10993776 131.71095258 -0.11655127 141.24838746 -0.11068493 C146.93950384 -0.10731858 152.63046528 -0.1097091 158.32155991 -0.12693596 C163.67492084 -0.14243368 169.0279244 -0.13841798 174.38127136 -0.11963081 C176.34117186 -0.11595268 178.30109899 -0.11903069 180.26097488 -0.1295166 C201.31403084 -0.23351962 201.31403084 -0.23351962 209.68704224 6.24705505 C210.1936438 6.8709613 210.70024536 7.49486755 211.22219849 8.13768005 C211.74684692 8.7512738 212.27149536 9.36486755 212.81204224 9.99705505 C216.6635325 16.24934164 217.72833734 21.92046355 217.67237854 29.10298157 C217.68045685 30.36446886 217.68045685 30.36446886 217.68869835 31.65144074 C217.70292764 34.45022834 217.69588669 37.2485396 217.68875122 40.04734802 C217.69445745 42.06183755 217.70142268 44.07632384 217.70954895 46.09080505 C217.72746828 51.54955311 217.72631415 57.00814031 217.72060657 62.46690893 C217.71751271 67.02944216 217.72360943 71.59194458 217.72964531 76.15447342 C217.74368514 86.92119996 217.74213395 97.68784714 217.73074341 108.45457458 C217.71926474 119.54953697 217.73333499 130.64425755 217.76013988 141.73918808 C217.7823163 151.27659901 217.78892981 160.81393415 217.78306347 170.35136902 C217.77969712 176.04248541 217.78208764 181.73344685 217.7993145 187.42454147 C217.81481222 192.77790241 217.81079652 198.13090597 217.79200935 203.48425293 C217.78833122 205.44415342 217.79140923 207.40408056 217.80189514 209.36395645 C217.90589816 230.4170124 217.90589816 230.4170124 211.42532349 238.7900238 C210.80141724 239.29662537 210.17751099 239.80322693 209.53469849 240.32518005 C208.92110474 240.84982849 208.30751099 241.37447693 207.67532349 241.9150238 C201.4230369 245.76651407 195.75191499 246.83131891 188.56939697 246.77536011 C187.72840545 246.78074565 186.88741392 246.78613118 186.0209378 246.79167992 C183.2221502 246.80590921 180.42383894 246.79886826 177.62503052 246.79173279 C175.61054099 246.79743901 173.5960547 246.80440425 171.58157349 246.81253052 C166.12282543 246.83044985 160.66423823 246.82929571 155.20546961 246.82358813 C150.64293638 246.82049428 146.08043396 246.82659099 141.51790512 246.83262688 C130.75117858 246.84666671 119.9845314 246.84511552 109.21780396 246.83372498 C98.12284157 246.82224631 87.02812099 246.83631656 75.93319046 246.86312145 C66.39577953 246.88529787 56.85844439 246.89191138 47.32100952 246.88604504 C41.62989313 246.88267869 35.93893169 246.88506921 30.24783707 246.90229607 C24.89447613 246.91779379 19.54147257 246.91377808 14.18812561 246.89499092 C12.22822512 246.89131278 10.26829798 246.8943908 8.30842209 246.90487671 C-12.85474003 247.00942366 -12.85474003 247.00942366 -21.11764526 240.4931488 C-21.62424683 239.86021912 -22.13084839 239.22728943 -22.65280151 238.57518005 C-23.17744995 237.94998474 -23.70209839 237.32478943 -24.24264526 236.6806488 C-28.1238526 230.63749573 -29.15770294 225.76166703 -29.10971069 218.71670532 C-29.1158018 217.86840112 -29.1218929 217.02009691 -29.12816858 216.14608651 C-29.14475652 213.3165677 -29.14002878 210.48750098 -29.13522339 207.65794373 C-29.14256621 205.62389663 -29.15115306 203.5898537 -29.16088867 201.55581665 C-29.18309221 196.03916978 -29.18603588 190.52267234 -29.18414116 185.00598693 C-29.18402139 180.39628092 -29.19258821 175.78660648 -29.20091867 171.17690927 C-29.22014903 160.29849564 -29.22303808 149.42015875 -29.21627808 138.54173279 C-29.20963914 127.33030289 -29.23249679 116.11920215 -29.26959181 104.907839 C-29.30031115 95.27278252 -29.31164635 85.63783179 -29.30775499 76.00272733 C-29.30568962 70.25230927 -29.31113413 64.50214731 -29.33564758 58.75177574 C-29.35794853 53.34174116 -29.35600868 47.93224071 -29.33572006 42.52220345 C-29.33231585 40.54133563 -29.33737361 38.56043163 -29.35170364 36.57961273 C-29.49232212 15.69414598 -29.49232212 15.69414598 -21.98918915 7.50337505 C-15.79979429 1.44348342 -8.35011247 -0.0650555 0 0 Z " fill="#37A032" transform="translate(1824.7153015136719,1417.612319946289)"/>
<path d="M0 0 C0.84099153 -0.00538554 1.68198305 -0.01077108 2.54845917 -0.01631981 C5.34724677 -0.0305491 8.14555804 -0.02350815 10.94436646 -0.01637268 C12.95885598 -0.02207891 14.97334227 -0.02904414 16.98782349 -0.03717041 C22.44657155 -0.05508974 27.90515874 -0.05393561 33.36392736 -0.04822803 C37.92646059 -0.04513417 42.48896302 -0.05123089 47.05149186 -0.05726677 C57.81821839 -0.0713066 68.58486557 -0.06975541 79.35159302 -0.05836487 C90.4465554 -0.0468862 101.54127599 -0.06095645 112.63620651 -0.08776134 C122.17361744 -0.10993776 131.71095258 -0.11655127 141.24838746 -0.11068493 C146.93950384 -0.10731858 152.63046528 -0.1097091 158.32155991 -0.12693596 C163.67492084 -0.14243368 169.0279244 -0.13841798 174.38127136 -0.11963081 C176.34117186 -0.11595268 178.30109899 -0.11903069 180.26097488 -0.1295166 C201.31403084 -0.23351962 201.31403084 -0.23351962 209.68704224 6.24705505 C210.1936438 6.8709613 210.70024536 7.49486755 211.22219849 8.13768005 C211.74684692 8.7512738 212.27149536 9.36486755 212.81204224 9.99705505 C216.6635325 16.24934164 217.72833734 21.92046355 217.67237854 29.10298157 C217.68045685 30.36446886 217.68045685 30.36446886 217.68869835 31.65144074 C217.70292764 34.45022834 217.69588669 37.2485396 217.68875122 40.04734802 C217.69445745 42.06183755 217.70142268 44.07632384 217.70954895 46.09080505 C217.72746828 51.54955311 217.72631415 57.00814031 217.72060657 62.46690893 C217.71751271 67.02944216 217.72360943 71.59194458 217.72964531 76.15447342 C217.74368514 86.92119996 217.74213395 97.68784714 217.73074341 108.45457458 C217.71926474 119.54953697 217.73333499 130.64425755 217.76013988 141.73918808 C217.7823163 151.27659901 217.78892981 160.81393415 217.78306347 170.35136902 C217.77969712 176.04248541 217.78208764 181.73344685 217.7993145 187.42454147 C217.81481222 192.77790241 217.81079652 198.13090597 217.79200935 203.48425293 C217.78833122 205.44415342 217.79140923 207.40408056 217.80189514 209.36395645 C217.90589816 230.4170124 217.90589816 230.4170124 211.42532349 238.7900238 C210.80141724 239.29662537 210.17751099 239.80322693 209.53469849 240.32518005 C208.92110474 240.84982849 208.30751099 241.37447693 207.67532349 241.9150238 C201.4230369 245.76651407 195.75191499 246.83131891 188.56939697 246.77536011 C187.72840545 246.78074565 186.88741392 246.78613118 186.0209378 246.79167992 C183.2221502 246.80590921 180.42383894 246.79886826 177.62503052 246.79173279 C175.61054099 246.79743901 173.5960547 246.80440425 171.58157349 246.81253052 C166.12282543 246.83044985 160.66423823 246.82929571 155.20546961 246.82358813 C150.64293638 246.82049428 146.08043396 246.82659099 141.51790512 246.83262688 C130.75117858 246.84666671 119.9845314 246.84511552 109.21780396 246.83372498 C98.12284157 246.82224631 87.02812099 246.83631656 75.93319046 246.86312145 C66.39577953 246.88529787 56.85844439 246.89191138 47.32100952 246.88604504 C41.62989313 246.88267869 35.93893169 246.88506921 30.24783707 246.90229607 C24.89447613 246.91779379 19.54147257 246.91377808 14.18812561 246.89499092 C12.22822512 246.89131278 10.26829798 246.8943908 8.30842209 246.90487671 C-12.85474003 247.00942366 -12.85474003 247.00942366 -21.11764526 240.4931488 C-21.62424683 239.86021912 -22.13084839 239.22728943 -22.65280151 238.57518005 C-23.17744995 237.94998474 -23.70209839 237.32478943 -24.24264526 236.6806488 C-28.1238526 230.63749573 -29.15770294 225.76166703 -29.10971069 218.71670532 C-29.1158018 217.86840112 -29.1218929 217.02009691 -29.12816858 216.14608651 C-29.14475652 213.3165677 -29.14002878 210.48750098 -29.13522339 207.65794373 C-29.14256621 205.62389663 -29.15115306 203.5898537 -29.16088867 201.55581665 C-29.18309221 196.03916978 -29.18603588 190.52267234 -29.18414116 185.00598693 C-29.18402139 180.39628092 -29.19258821 175.78660648 -29.20091867 171.17690927 C-29.22014903 160.29849564 -29.22303808 149.42015875 -29.21627808 138.54173279 C-29.20963914 127.33030289 -29.23249679 116.11920215 -29.26959181 104.907839 C-29.30031115 95.27278252 -29.31164635 85.63783179 -29.30775499 76.00272733 C-29.30568962 70.25230927 -29.31113413 64.50214731 -29.33564758 58.75177574 C-29.35794853 53.34174116 -29.35600868 47.93224071 -29.33572006 42.52220345 C-29.33231585 40.54133563 -29.33737361 38.56043163 -29.35170364 36.57961273 C-29.49232212 15.69414598 -29.49232212 15.69414598 -21.98918915 7.50337505 C-15.79979429 1.44348342 -8.35011247 -0.0650555 0 0 Z " fill="#37A032" transform="translate(1531.7153015136719,1417.612319946289)"/>
<path d="M0 0 C1.70209877 0.00333092 1.70209877 0.00333092 3.43858337 0.00672913 C4.71983597 0.00680466 6.00108856 0.00688019 7.32116699 0.00695801 C8.73001646 0.01206542 10.13886554 0.01728143 11.54771423 0.02259827 C12.98118033 0.02446249 14.41464706 0.02588637 15.84811401 0.02688599 C19.62765755 0.03071079 23.40716288 0.04054075 27.18669128 0.05158997 C31.04075097 0.06180489 34.8948168 0.06638378 38.74888611 0.07142639 C46.31596085 0.08216306 53.88300407 0.09923903 61.45005798 0.12025452 C65.00133179 8.37894823 68.15753765 16.71125579 71.08287048 25.21009827 C71.74130823 27.10656488 72.39975115 29.00302972 73.05840111 30.89942265 C73.7539472 32.90390991 74.44780954 34.90897289 75.14122009 36.91419983 C77.6013036 44.02674066 80.07614091 51.13415419 82.55162048 58.24134827 C82.92727772 59.32029169 82.92727772 59.32029169 83.31052399 60.42103195 C88.10452478 74.18518006 93.00574789 87.90938003 97.95005798 101.62025452 C105.40428417 122.30052341 112.68347361 143.03834709 119.90104675 163.80201721 C124.81415663 177.93435873 129.75810651 192.05311627 134.84458923 206.12416077 C135.27000504 207.30108994 135.69542084 208.4780191 136.13372803 209.69061279 C138.13673536 215.22467314 140.1479945 220.75560354 142.16905212 226.28309631 C142.87471005 228.22360369 143.58035843 230.16411454 144.28599548 232.10462952 C144.60981705 232.98264725 144.93363861 233.86066498 145.26727295 234.76528931 C145.55752853 235.56530869 145.84778412 236.36532806 146.14683533 237.18959045 C146.40024689 237.88115234 146.65365845 238.57271423 146.91474915 239.28523254 C147.45005798 241.12025452 147.45005798 241.12025452 147.45005798 244.12025452 C128.64005798 244.12025452 109.83005798 244.12025452 90.45005798 244.12025452 C84.84005798 225.64025452 79.23005798 207.16025452 73.45005798 188.12025452 C44.41005798 187.79025452 15.37005798 187.46025452 -14.54994202 187.12025452 C-16.03494202 193.06025452 -16.03494202 193.06025452 -17.54994202 199.12025452 C-18.56024855 202.63276766 -19.58669966 206.13253545 -20.65150452 209.62806702 C-20.93343658 210.56077423 -21.21536865 211.49348145 -21.50584412 212.45445251 C-22.0943573 214.39913584 -22.68426074 216.34339895 -23.27552795 218.2872467 C-24.18312399 221.27216352 -25.08558891 224.25859811 -25.98744202 227.24525452 C-26.56266445 229.14378245 -27.13817461 231.04222324 -27.71400452 232.94056702 C-27.9837912 233.8331723 -28.25357788 234.72577759 -28.53153992 235.64543152 C-28.90730667 236.87844498 -28.90730667 236.87844498 -29.29066467 238.1363678 C-29.51033905 238.8596225 -29.73001343 239.5828772 -29.9563446 240.32804871 C-30.54994202 242.12025452 -30.54994202 242.12025452 -31.54994202 244.12025452 C-46.33518318 244.58891053 -61.11943431 244.94081607 -75.9106102 245.15649796 C-82.78006453 245.25934484 -89.6448886 245.39931076 -96.5113678 245.62904358 C-103.14429334 245.8508552 -109.77369429 245.96608196 -116.41048431 246.01779938 C-118.9356411 246.05462339 -121.46054833 246.12655188 -123.98365021 246.23485565 C-143.25480431 247.02879923 -143.25480431 247.02879923 -148.77521515 242.15605545 C-152.63076351 237.3580887 -155.20769625 232.09983685 -157.55221748 226.43724918 C-158.81492023 223.50490118 -160.43699347 220.90989402 -162.22181702 218.26869202 C-162.98776184 217.07723572 -162.98776184 217.07723572 -163.7691803 215.86170959 C-164.27433167 215.08077942 -164.77948303 214.29984924 -165.29994202 213.49525452 C-171.21486773 204.27561657 -176.97581239 194.96775406 -182.7000885 185.62879944 C-187.35256293 178.0455338 -192.06208971 170.50145531 -196.83363342 162.99256897 C-197.28271057 162.28575989 -197.73178772 161.57895081 -198.19447327 160.85072327 C-198.57966125 160.24639465 -198.96484924 159.64206604 -199.36170959 159.01942444 C-200.78865058 156.738723 -202.16578973 154.42717499 -203.54994202 152.12025452 C-212.45994202 151.79025452 -221.36994202 151.46025452 -230.54994202 151.12025452 C-230.54994202 181.81025452 -230.54994202 212.50025452 -230.54994202 244.12025452 C-247.70994202 244.12025452 -264.86994202 244.12025452 -282.54994202 244.12025452 C-282.54994202 163.93025452 -282.54994202 83.74025452 -282.54994202 1.12025452 C-154.05974594 1.12025452 -154.05974594 1.12025452 -129.54994202 25.12025452 C-126.90375478 28.29370812 -124.66316451 31.57305962 -122.54994202 35.12025452 C-122.16322327 35.7531842 -121.77650452 36.38611389 -121.37806702 37.03822327 C-112.45545643 53.13324005 -111.16578782 74.51477667 -115.54994202 92.12025452 C-121.65874009 112.47467076 -134.80116317 125.52299828 -152.54994202 136.12025452 C-154.21676825 137.11998853 -155.88346267 138.11994238 -157.54994202 139.12025452 C-154.0867708 144.32761386 -150.62191207 149.5338453 -147.15565491 154.739151 C-145.98301876 156.50057982 -144.81080085 158.26228716 -143.63905334 160.02430725 C-135.8343824 171.75982234 -127.94659667 183.43347858 -119.9684906 195.05174255 C-116.6458896 199.89672283 -113.35000494 204.75990908 -110.04994202 209.62025452 C-102.90536001 220.13542979 -95.73668552 230.63385834 -88.54994202 241.12025452 C-85.50777563 233.72958767 -82.78358849 226.25554525 -80.16322327 218.70619202 C-79.74920258 217.51968552 -79.33518188 216.33317902 -78.90861511 215.11071777 C-78.02044871 212.56495271 -77.13304155 210.01893843 -76.24693298 207.47245789 C-74.12189799 201.36617858 -71.98963962 195.26242044 -69.85746193 189.15863228 C-69.37543342 187.7786975 -68.8934785 186.39873702 -68.4115963 185.01875114 C-63.97360664 172.31034777 -59.49198227 159.61771561 -54.98744202 146.93275452 C-48.80211467 129.50901127 -42.66435715 112.06900662 -36.54994202 94.62025452 C-29.43871439 74.32769029 -22.29226812 54.04799019 -15.10462952 33.78236389 C-14.77759033 32.86024109 -14.45055115 31.93811829 -14.11360168 30.98805237 C-13.4828905 29.21047354 -12.85176118 27.433043 -12.22016907 25.65577698 C-10.72859127 21.45640717 -9.24536138 17.25443523 -7.7794342 13.04603577 C-7.50151031 12.25048279 -7.22358643 11.45492981 -6.9372406 10.63526917 C-6.41658812 9.14336256 -5.89824683 7.65064665 -5.38261414 6.15699768 C-3.28518962 0.15492858 -3.28518962 0.15492858 0 0 Z M29.45005798 41.12025452 C24.84100785 55.5284672 20.46061838 69.99899552 16.13755798 84.49525452 C8.7171694 109.34622468 8.7171694 109.34622468 5.47349548 119.71791077 C5.25685745 120.41078186 5.04021942 121.10365295 4.8170166 121.81752014 C3.84831663 124.90899249 2.87223422 127.99795365 1.88829041 131.08460999 C1.55933777 132.12633362 1.23038513 133.16805725 0.89146423 134.24134827 C0.60988464 135.12234192 0.32830505 136.00333557 0.03819275 136.911026 C-0.67857061 139.22239695 -0.67857061 139.22239695 -0.54994202 142.12025452 C19.58005798 142.12025452 39.71005798 142.12025452 60.45005798 142.12025452 C59.11566086 136.11546748 57.70375373 130.35432155 55.86802673 124.51454163 C55.61735443 123.7067778 55.36668213 122.89901398 55.1084137 122.06677246 C54.28808686 119.42601105 53.46277446 116.78683533 52.63755798 114.14759827 C52.06190224 112.29644351 51.48663194 110.44516886 50.91172791 108.59378052 C49.40308238 103.73803025 47.89050666 98.88351464 46.37669373 94.02937317 C43.95341258 86.25817773 41.53420834 78.48571903 39.1186676 70.71211433 C38.27759 68.00841959 37.43364932 65.30563048 36.58946228 62.60290527 C36.07022596 60.93416264 35.55109604 59.2653869 35.03208923 57.59657288 C34.68290939 56.48273224 34.68290939 56.48273224 34.32667542 55.34638977 C32.86614221 50.63812293 31.60808936 45.91219931 30.45005798 41.12025452 C30.12005798 41.12025452 29.79005798 41.12025452 29.45005798 41.12025452 Z M-230.54994202 44.12025452 C-230.54994202 65.24025452 -230.54994202 86.36025452 -230.54994202 108.12025452 C-200.78072105 109.85220107 -200.78072105 109.85220107 -174.85072327 97.49134827 C-168.51385065 90.63279606 -166.13443728 82.65979467 -166.34681702 73.38587952 C-167.07602794 65.2523731 -169.36251341 58.95649095 -175.12025452 53.06166077 C-190.30817789 40.9259728 -213.00973035 44.12025452 -230.54994202 44.12025452 Z " fill="#1E1613" transform="translate(2311.5499420166016,2417.8797454833984)"/>
<path d="M0 0 C2.82072078 2.42080762 5.57586823 4.90688491 8.30810547 7.42675781 C9.06607422 8.11382813 9.82404297 8.80089844 10.60498047 9.50878906 C34.39561927 32.10989593 48.26232664 65.51121435 49.59326172 98.04394531 C50.35891768 130.47767864 41.91819243 161.9137977 21.30810547 187.42675781 C20.60016846 188.31766113 20.60016846 188.31766113 19.87792969 189.2265625 C13.40039043 197.31760956 6.64771033 204.19936728 -1.69189453 210.42675781 C-2.50529297 211.07773438 -3.31869141 211.72871094 -4.15673828 212.39941406 C-22.15319928 226.34736457 -43.35584758 234.10854241 -65.69189453 237.42675781 C-66.54525391 237.55824219 -67.39861328 237.68972656 -68.27783203 237.82519531 C-101.48485412 242.01857353 -136.75120996 233.25918596 -163.69189453 213.42675781 C-164.49369141 212.84796875 -165.29548828 212.26917969 -166.12158203 211.67285156 C-179.70207032 201.36503832 -190.84379527 188.95017147 -199.69189453 174.42675781 C-200.0639502 173.82428223 -200.43600586 173.22180664 -200.81933594 172.60107422 C-209.85185022 157.71029422 -215.07144609 140.5749724 -217.69189453 123.42675781 C-217.8871875 122.18539062 -217.8871875 122.18539062 -218.08642578 120.91894531 C-222.35763715 87.31874924 -213.36894903 51.45911589 -193.00830078 24.37597656 C-170.60233006 -4.1510182 -140.06541465 -24.27747798 -103.42578125 -28.85644531 C-66.44005432 -32.73281199 -28.93598465 -24.10190145 0 0 Z " fill="#CF171E" transform="translate(1712.69189453125,850.5732421875)"/>
<path d="M0 0 C21.78 0 43.56 0 66 0 C72.74226153 10.11339229 72.74226153 10.11339229 74.9375 14.06640625 C75.43241943 14.95126709 75.92733887 15.83612793 76.43725586 16.74780273 C76.95296143 17.67665283 77.46866699 18.60550293 78 19.5625 C82.57573823 27.72954152 87.21063372 35.85693901 91.9375 43.9375 C92.80967163 45.42866333 92.80967163 45.42866333 93.69946289 46.94995117 C94.87861816 48.96445667 96.05822406 50.97869848 97.23828125 52.99267578 C100.14273691 57.95069751 103.04090775 62.91238105 105.9375 67.875 C106.51234131 68.85976318 107.08718262 69.84452637 107.67944336 70.85913086 C112.61211793 79.31779243 117.50399282 87.79970471 122.39208984 96.28417969 C128.88499878 107.5479725 135.43942556 118.77552764 142 130 C151.72279346 146.63470592 161.38314586 163.30387715 171 180 C170.94006866 178.84210968 170.88013733 177.68421936 170.81838989 176.49124146 C168.99775303 140.47781489 168.74344831 104.54500982 168.85594678 68.49899411 C168.87891267 61.00111637 168.88944829 53.50323343 168.89935279 46.00532889 C168.91986755 30.67017098 168.95631022 15.33511207 169 0 C184.84 0 200.68 0 217 0 C217 80.19 217 160.38 217 243 C194.89 243 172.78 243 150 243 C146.22299685 237.33449527 142.70994828 231.88457048 139.5 225.9375 C135.57092752 218.76523937 131.51227393 211.67908398 127.375 204.625 C122.21620757 195.82246134 117.11537856 186.98866947 112.0625 178.125 C105.03439327 165.79950519 97.95759395 153.50277637 90.85888672 141.21777344 C87.73675393 135.81329351 84.61863474 130.40649893 81.5 125 C80.88189453 123.92878906 80.26378906 122.85757813 79.62695312 121.75390625 C76.48777626 116.31353925 73.35000371 110.87237045 70.21484375 105.4296875 C61.85741101 90.92508777 53.45075616 76.45041866 45 62 C45.14470585 65.70837816 45.29100435 69.41669215 45.4375 73.125 C45.47681641 74.13304688 45.51613281 75.14109375 45.55664062 76.1796875 C45.59853516 77.23671875 45.64042969 78.29375 45.68359375 79.3828125 C45.72782471 80.50957397 45.77205566 81.63633545 45.81762695 82.79724121 C45.93690657 85.6832392 46.08368343 88.56644638 46.24621582 91.45031738 C47.09369192 107.06220895 47.13296172 122.65967904 47.10139394 138.28916502 C47.09503164 141.98595707 47.09454664 145.68275044 47.09336853 149.37954712 C47.0902924 156.34160137 47.08213057 163.30363943 47.07201904 170.26568663 C47.0607406 178.20800232 47.05531826 186.1503189 47.05032361 194.09264064 C47.03994368 210.39510466 47.02164602 226.69754645 47 243 C31.49 243 15.98 243 0 243 C0 162.81 0 82.62 0 0 Z " fill="#1E1613" transform="translate(1152,2127)"/>
<path d="M0 0 C22.49335966 20.90683742 32.47885893 52.83118353 34 82.875 C35.38724279 121.18881061 31.47581621 161.53597211 4.625 191.1875 C-12.96796158 209.82483434 -35.62894822 219.95922241 -61 222.875 C-61.80179688 222.98457031 -62.60359375 223.09414062 -63.4296875 223.20703125 C-98.77352272 227.33598396 -133.00736795 220.47860341 -161.55859375 198.9453125 C-184.61478466 179.79346765 -195.16203187 148.86015595 -198 119.875 C-200.77391091 80.45304278 -197.44176612 39.93576218 -172 7.875 C-156.02093593 -10.44603377 -135.40213227 -20.20017585 -112 -25.125 C-110.85144531 -25.37121094 -109.70289062 -25.61742188 -108.51953125 -25.87109375 C-70.35038964 -32.35940035 -29.83955328 -25.35900116 0 0 Z M-118 26.875 C-119.04220703 27.62716797 -119.04220703 27.62716797 -120.10546875 28.39453125 C-134.91014387 40.16381844 -140.57956265 59.63123665 -142.78436279 77.69319153 C-143.12892293 81.17943695 -143.18230585 84.65115061 -143.203125 88.15234375 C-143.20882507 88.92195938 -143.21452515 89.69157501 -143.22039795 90.48451233 C-143.22978632 92.1072556 -143.23635718 93.73001741 -143.24023438 95.3527832 C-143.24985216 97.7752637 -143.28089754 100.19686159 -143.3125 102.61914062 C-143.46613917 125.15240654 -139.23511089 147.69179945 -123.30859375 164.5859375 C-112.06921281 175.73023061 -97.76332792 179.56238316 -82.1875 180.1875 C-66.51020773 179.73013977 -51.46682217 175.19781545 -39.95703125 164.09375 C-21.35051221 142.998934 -19.64369743 112.63589303 -21 85.875 C-22.53085807 66.17527381 -26.83052256 43.90417504 -42 29.875 C-62.66255073 12.9856107 -96.15746549 10.85196847 -118 26.875 Z " fill="#1E1613" transform="translate(2768,2150.125)"/>
<path d="M0 0 C108.11079545 0 108.11079545 0 126.1875 5.6875 C127.42137451 6.06986816 127.42137451 6.06986816 128.68017578 6.45996094 C155.61213455 15.17186412 176.80299714 32.93730672 190.07983398 57.91381836 C207.21022748 91.70120489 206.78514473 134.72461242 195.29589844 170.17236328 C185.92512188 197.23418636 166.81111691 217.08997823 141.546875 229.859375 C98.87803542 250.51738217 43.14766065 243 0 243 C0 162.81 0 82.62 0 0 Z M52 43 C52 94.81 52 146.62 52 200 C92.61882939 200.977556 92.61882939 200.977556 127.4375 182.75 C146.21964109 162.95260804 148.78501396 137.85204924 148.10498047 111.77001953 C147.32621702 91.22153091 141.19424959 71.42960391 126 57 C105.05819347 39.09475541 78.37897012 43 52 43 Z " fill="#1E1613" transform="translate(1586,2419)"/>
<path d="M0 0 C17.16 0 34.32 0 52 0 C52.029729 6.92528687 52.029729 6.92528687 52.06005859 13.99047852 C52.12708964 29.2774635 52.20463016 44.56438201 52.28752708 59.8512888 C52.33751216 69.11593053 52.38395591 78.38056404 52.421875 87.64526367 C52.45495917 95.72641077 52.49487926 103.80749125 52.54279006 111.88856453 C52.56789292 116.16193338 52.5897207 120.43525896 52.60334396 124.70868111 C52.61631321 128.74291876 52.63852229 132.77700678 52.66738319 136.81116104 C52.67634433 138.28033375 52.68212183 139.74953047 52.68421364 141.21872902 C52.71053611 156.91877845 52.96073255 176.62535737 63.375 189.48046875 C72.53858873 198.04930533 83.73517211 201.29156229 96 202 C96.69351563 202.04125 97.38703125 202.0825 98.1015625 202.125 C110.53951054 202.48683122 123.57617058 199.97186985 133.8125 192.5625 C144.35419295 182.45897033 147.00338993 166.05885147 147.39872742 152.1219635 C147.43519364 149.28429562 147.43571732 146.44747751 147.43237305 143.60961914 C147.44141673 142.03106432 147.4517502 140.45251645 147.46325684 138.87397766 C147.49054753 134.63944457 147.5000728 130.40504568 147.50611091 126.17043614 C147.51556828 121.72615569 147.54177687 117.28197267 147.56611633 112.8377533 C147.60958426 104.44468817 147.63825171 96.05164217 147.66143972 87.65849918 C147.68859779 78.09358492 147.73250222 68.52876966 147.77772844 58.96392643 C147.87029212 39.30932384 147.93989176 19.6547305 148 0 C165.49 0 182.98 0 201 0 C201.0226212 20.48923585 201.04102234 40.97846149 201.05181217 61.46770668 C201.05695645 70.98238194 201.06396337 80.49704885 201.07543945 90.01171875 C201.08544356 98.30998629 201.091867 106.60824779 201.09408849 114.9065212 C201.09538591 119.29556424 201.09840992 123.68459 201.10573006 128.07362747 C201.11258087 132.21531232 201.11459876 136.35697297 201.11310768 140.49866295 C201.11337998 142.00858759 201.11533084 143.51851315 201.11920547 145.02843285 C201.19057342 174.30727454 196.94296676 199.34515144 176.125 221.25 C160.89265614 235.74434271 140.58389751 243.23835384 120 246 C119.20464844 246.11085938 118.40929688 246.22171875 117.58984375 246.3359375 C88.0504983 249.7144716 54.61920556 246.12277501 30.58789062 227.30664062 C13.1060092 212.921181 2.90625947 193.62888253 0.20265305 171.10663605 C-0.10190565 167.94066179 -0.12262019 164.80153085 -0.12025452 161.62207031 C-0.12110894 160.92511456 -0.12196337 160.22815882 -0.12284368 159.5100832 C-0.12447691 157.19940342 -0.11901284 154.88879797 -0.11352539 152.578125 C-0.11324303 150.91194155 -0.11340222 149.24575797 -0.1139679 147.57957458 C-0.11425395 143.07398268 -0.10838829 138.56841758 -0.10139394 134.06283188 C-0.09512839 129.34763476 -0.09455407 124.63243697 -0.09336853 119.91723633 C-0.09026464 110.99621468 -0.08206398 102.07520534 -0.07201904 93.15418911 C-0.06082861 82.99458551 -0.05534007 72.83498131 -0.05032361 62.67537308 C-0.03988056 41.78357367 -0.02154681 20.89179111 0 0 Z " fill="#1E1714" transform="translate(2123,2127)"/>
<path d="M0 0 C46.53 0 93.06 0 141 0 C141 14.19 141 28.38 141 43 C111.96 43 82.92 43 53 43 C53 60.16 53 77.32 53 95 C80.06 95 107.12 95 135 95 C135 109.19 135 123.38 135 138 C107.94 138 80.88 138 53 138 C53 158.46 53 178.92 53 200 C82.04 200 111.08 200 141 200 C141 214.19 141 228.38 141 243 C94.47 243 47.94 243 0 243 C0 162.81 0 82.62 0 0 Z " fill="#1E1714" transform="translate(1838,2419)"/>
<path d="M0 0 C46.53 0 93.06 0 141 0 C141 14.19 141 28.38 141 43 C111.96 43 82.92 43 53 43 C53 60.16 53 77.32 53 95 C80.06 95 107.12 95 135 95 C135 109.19 135 123.38 135 138 C107.94 138 80.88 138 53 138 C53 158.46 53 178.92 53 200 C82.04 200 111.08 200 141 200 C141 214.19 141 228.38 141 243 C94.47 243 47.94 243 0 243 C0 162.81 0 82.62 0 0 Z " fill="#1E1714" transform="translate(1395,2419)"/>
<path d="M0 0 C-0.6066104 5.2190031 -2.28744935 9.4846815 -4.37890625 14.2421875 C-4.71043198 15.01055939 -5.0419577 15.77893127 -5.38352966 16.57058716 C-6.43694882 19.00814955 -7.49956146 21.44157583 -8.5625 23.875 C-9.28121112 25.53358903 -9.99931666 27.19244063 -10.71679688 28.8515625 C-12.47086917 32.90411447 -14.23319401 36.95298432 -16 41 C-19.55825646 40.47166531 -22.80363514 39.84815921 -26.14453125 38.51171875 C-26.89565186 38.2192627 -27.64677246 37.92680664 -28.4206543 37.62548828 C-29.20996338 37.31595215 -29.99927246 37.00641602 -30.8125 36.6875 C-37.19543429 34.25963542 -43.53141061 32.1648137 -50.1875 30.625 C-50.85692627 30.46990967 -51.52635254 30.31481934 -52.21606445 30.1550293 C-66.17190343 27.09155245 -82.29332421 25.2072832 -94.875 33.25 C-98.89151334 36.38553282 -100.91766331 40.20396355 -102.75 44.9375 C-103.689097 52.68505025 -102.91088713 58.93509999 -98.30957031 65.3605957 C-89.35662306 75.59212982 -74.00439742 81.18550966 -62 87 C-38.13635329 98.55867624 -11.71875244 111.50044709 -2 138 C0.60939366 146.22168473 1.47112047 153.90255768 1.375 162.5 C1.38660156 163.53769531 1.39820313 164.57539063 1.41015625 165.64453125 C1.37099131 176.12768111 -0.80899132 185.79805279 -5.625 195.125 C-5.97127441 195.80167725 -6.31754883 196.47835449 -6.67431641 197.17553711 C-15.57666665 213.87491223 -32.06347977 223.66109209 -49.6875 229.3125 C-55.406457 230.93460417 -61.11428223 232.17163972 -67 233 C-67.77730469 233.11214844 -68.55460937 233.22429688 -69.35546875 233.33984375 C-98.55087488 236.72818182 -130.4953477 233.12769612 -157 220 C-158 219 -158 219 -158.12025452 217.01951599 C-158.11803391 216.15125687 -158.11581329 215.28299774 -158.11352539 214.38842773 C-158.11344986 213.40748642 -158.11337433 212.4265451 -158.11329651 211.4158783 C-158.10813522 210.3492244 -158.10297394 209.2825705 -158.09765625 208.18359375 C-158.0962413 207.0974025 -158.09482635 206.01121124 -158.09336853 204.8921051 C-158.08775048 201.40720925 -158.07519492 197.92237658 -158.0625 194.4375 C-158.05748733 192.08138113 -158.05292402 189.72526126 -158.04882812 187.36914062 C-158.03777519 181.57940536 -158.02101951 175.78970719 -158 170 C-157.31188232 170.27150879 -156.62376465 170.54301758 -155.91479492 170.82275391 C-121.5333211 184.52957706 -121.5333211 184.52957706 -85.125 189.375 C-84.17399414 189.38901855 -83.22298828 189.40303711 -82.24316406 189.41748047 C-72.80628276 189.35325039 -63.33089524 187.29813632 -56 181 C-51.78442339 175.67248869 -50.57499989 169.86250457 -50.73828125 163.16796875 C-51.65920287 155.53943892 -55.79468617 150.28073638 -61.54296875 145.44140625 C-73.75024145 136.40988816 -88.32409711 130.30100006 -101.99560547 123.87036133 C-113.2951253 118.51278 -123.54572077 112.25011974 -133 104 C-133.69738281 103.39800781 -134.39476562 102.79601563 -135.11328125 102.17578125 C-146.03402716 92.06083795 -154.26066235 76.61291845 -155.13891602 61.63012695 C-155.87204233 41.82130605 -154.18038776 24.28853399 -140.625 8.75 C-139.09935405 7.15122391 -137.55859585 5.56667148 -136 4 C-135.40832031 3.37351562 -134.81664062 2.74703125 -134.20703125 2.1015625 C-101.0883402 -30.21292192 -36.76054048 -18.38027024 0 0 Z " fill="#1E1613" transform="translate(1572,2140)"/>
<path d="M0 0 C46.2 0 92.4 0 140 0 C140 14.19 140 28.38 140 43 C110.63 43 81.26 43 51 43 C51 63.13 51 83.26 51 104 C78.39 104 105.78 104 134 104 C134 118.19 134 132.38 134 147 C106.61 147 79.22 147 51 147 C51 178.68 51 210.36 51 243 C34.17 243 17.34 243 0 243 C0 162.81 0 82.62 0 0 Z " fill="#1E1713" transform="translate(1207,2419)"/>
<path d="M0 0 C61.05 0 122.1 0 185 0 C185 14.52 185 29.04 185 44 C163.22 44 141.44 44 119 44 C119 110 119 176 119 244 C101.84 244 84.68 244 67 244 C65.25608001 242.25608001 65.87757448 239.98637702 65.87091869 237.66246885 C65.87383153 236.89108298 65.87674437 236.11969711 65.87974548 235.32493591 C65.87889106 234.51145457 65.87803663 233.69797322 65.87715632 232.85984093 C65.87549903 230.11283759 65.88102694 227.36589427 65.88647461 224.61889648 C65.88675645 222.65818279 65.8865988 220.697469 65.8860321 218.73675537 C65.88574402 213.39606666 65.89164248 208.05540019 65.89860606 202.71471667 C65.90483782 197.13997684 65.90544326 191.56523655 65.90663147 185.99049377 C65.90974531 175.42593909 65.91795941 164.86139469 65.92798096 154.29684454 C65.93914045 142.2728677 65.94465213 130.24889039 65.94967639 118.22490966 C65.96014199 93.48326608 65.97848812 68.74163661 66 44 C44.22 44 22.44 44 0 44 C0 29.48 0 14.96 0 0 Z " fill="#1E1713" transform="translate(2359,2127)"/>
<path d="M0 0 C60.72 0 121.44 0 184 0 C184 14.52 184 29.04 184 44 C162.22 44 140.44 44 118 44 C118 110 118 176 118 244 C100.84 244 83.68 244 66 244 C66 178 66 112 66 44 C44.22 44 22.44 44 0 44 C0 29.48 0 14.96 0 0 Z " fill="#1E1613" transform="translate(1903,2127)"/>
<path d="M0 0 C60.72 0 121.44 0 184 0 C184 14.52 184 29.04 184 44 C162.22 44 140.44 44 118 44 C118 110 118 176 118 244 C100.84 244 83.68 244 66 244 C66 178 66 112 66 44 C44.22 44 22.44 44 0 44 C0 29.48 0 14.96 0 0 Z " fill="#1E1613" transform="translate(1593,2127)"/>
<path d="M0 0 C17.49 0 34.98 0 53 0 C53 66 53 132 53 200 C85.67 200 118.34 200 152 200 C152 214.19 152 228.38 152 243 C101.84 243 51.68 243 0 243 C0 162.81 0 82.62 0 0 Z " fill="#1E1614" transform="translate(2490,2419)"/>
<path d="M0 0 C17.49 0 34.98 0 53 0 C53.02202648 30.93974283 53.04049791 61.87947813 53.05106533 92.81922635 C53.05231611 96.46810729 53.05361042 100.11698822 53.05493164 103.76586914 C53.05519395 104.49232622 53.05545626 105.2187833 53.05572652 105.96725423 C53.06008332 117.74535918 53.06797093 129.52345928 53.0771528 141.30156135 C53.08648905 153.3780084 53.09205555 165.45445289 53.09408849 177.5309034 C53.09546378 184.98870014 53.09981467 192.44648315 53.10791647 199.90427566 C53.11380429 205.61329978 53.11445903 211.32231501 53.11310768 217.03134155 C53.1133842 219.38041837 53.11539183 221.72949568 53.11920547 224.07856941 C53.12413609 227.27057449 53.12300064 230.46251946 53.12025452 233.65452576 C53.12316736 234.59711335 53.1260802 235.53970095 53.12908131 236.5108518 C53.11412121 242.88587879 53.11412121 242.88587879 52 244 C34.84 244 17.68 244 0 244 C0 163.48 0 82.96 0 0 Z " fill="#1E1613" transform="translate(1038,2127)"/>
<path d="M0 0 C17.16 0 34.32 0 52 0 C52 80.52 52 161.04 52 244 C34.84 244 17.68 244 0 244 C0 163.48 0 82.96 0 0 Z " fill="#1E1613" transform="translate(1814,2127)"/>
<path d="M0 0 C13.2822828 11.89871168 19.5883665 29.5200071 21 47 C22.17290974 70.69847833 21.4544799 95.46823687 5.5 114.5625 C4.35665033 115.73160079 3.1900164 116.87843587 2 118 C1.09507813 118.91652344 1.09507813 118.91652344 0.171875 119.8515625 C-12.06349863 131.53982592 -27.06903923 132.57945503 -43.11328125 132.3125 C-58.79857557 131.71732678 -69.08185653 124.91814347 -80 114 C-80 139.74 -80 165.48 -80 192 C-87.26 192 -94.52 192 -102 192 C-102 125.67 -102 59.34 -102 -9 C-96.06 -9 -90.12 -9 -84 -9 C-82.79286762 -4.77503666 -81.69389466 -0.83245074 -80.875 3.4375 C-80.70742187 4.30246094 -80.53984375 5.16742187 -80.3671875 6.05859375 C-80.24601562 6.69925781 -80.12484375 7.33992188 -80 8 C-79.401875 7.175 -78.80375 6.35 -78.1875 5.5 C-69.57460203 -4.76735295 -57.65303032 -10.04227165 -44.62109375 -11.74609375 C-28.44461369 -12.88036689 -13.0148028 -10.29677234 0 0 Z M-69.96484375 18.0859375 C-82.20035062 33.65840079 -81.44858665 57.65865195 -79.25 76.375 C-77.47682992 88.7625632 -74.11846694 97.88153306 -65.25 106.75 C-55.14271349 113.7473522 -43.24510803 115.52790301 -31.2109375 113.5390625 C-22.29488729 111.1927335 -15.15539416 105.60127718 -10 98 C-3.32635051 86.18839876 -1.44554284 73.58930575 -1.5625 60.1875 C-1.57007324 58.96498535 -1.57764648 57.7424707 -1.58544922 56.48291016 C-1.87157973 40.73320065 -4.90036361 27.56834973 -15.75 15.625 C-23.19379426 8.55268108 -32.92540661 6.65465508 -42.8984375 6.7890625 C-53.55696018 7.51394943 -62.54314801 10.20684102 -69.96484375 18.0859375 Z " fill="#221E1F" transform="translate(1471,2827)"/>
<path d="M0 0 C34.32 0 68.64 0 104 0 C104 6.6 104 13.2 104 20 C77.27 20 50.54 20 23 20 C23 39.14 23 58.28 23 78 C48.08 78 73.16 78 99 78 C99 84.6 99 91.2 99 98 C73.92 98 48.84 98 23 98 C23 120.11 23 142.22 23 165 C49.73 165 76.46 165 104 165 C104 171.6 104 178.2 104 185 C69.68 185 35.36 185 0 185 C0 123.95 0 62.9 0 0 Z " fill="#221F20" transform="translate(1105,2772)"/>
<path d="M0 0 C-1.36874156 6.95776959 -3.4533129 13.38603107 -6 20 C-6.54785156 19.82984375 -7.09570312 19.6596875 -7.66015625 19.484375 C-30.21698798 12.58895327 -54.12955792 5.54703034 -76.28515625 17.15234375 C-80.93793189 20.31890904 -83.87918847 24.58187292 -85.62890625 29.91796875 C-87.30393309 39.31575089 -86.09058143 47.95205033 -81.125 56.0625 C-72.33733764 65.36107296 -59.44243579 69.3739178 -47.8203125 73.76953125 C-8.8567933 88.53972197 -8.8567933 88.53972197 0.81640625 106.3515625 C7.14447532 120.51140021 6.35665096 135.78817535 1.2265625 150.16796875 C-4.31337061 162.89964988 -16.08625219 170.75286819 -28.5 175.8125 C-39.17882787 179.92946916 -49.97251362 180.34747391 -61.27685547 180.31567383 C-63.6004217 180.31253322 -65.92268564 180.33598275 -68.24609375 180.36132812 C-82.91411289 180.42345607 -97.31057391 178.58649373 -111 173 C-112 172 -112 172 -112.11352539 169.86694336 C-112.10828857 168.95050049 -112.10305176 168.03405762 -112.09765625 167.08984375 C-112.09443359 166.10048828 -112.09121094 165.11113281 -112.08789062 164.09179688 C-112.07951172 163.05087891 -112.07113281 162.00996094 -112.0625 160.9375 C-112.05798828 159.89271484 -112.05347656 158.84792969 -112.04882812 157.77148438 C-112.03699913 155.1809334 -112.02051689 152.59049441 -112 150 C-110.20369141 150.59748047 -110.20369141 150.59748047 -108.37109375 151.20703125 C-95.17344794 155.52905934 -81.95852679 159.29888678 -68 160 C-66.95714844 160.05285156 -65.91429688 160.10570313 -64.83984375 160.16015625 C-51.82151597 160.49772281 -36.40633165 159.33089477 -26.16796875 150.40234375 C-19.51927018 143.30069248 -18.39920328 135.94746254 -18.6640625 126.40234375 C-19.35578142 119.39667886 -21.76238752 114.86789322 -26.75 109.9375 C-36.75863235 101.73237121 -49.21471344 97.44185826 -61.19775391 93 C-79.02789784 86.32062653 -97.4180574 77.87532761 -105.8984375 59.79296875 C-111.11931465 46.55563839 -111.85629085 32.4425085 -107 19 C-101.52307184 6.70854407 -91.32209916 -1.14914831 -79 -6 C-54.37405349 -13.79108729 -23.20730965 -11.60365482 0 0 Z " fill="#221E1F" transform="translate(2182,2779)"/>
<path d="M0 0 C9.16538949 8.0100883 13.2066145 18.13902428 14.03702164 30.2065773 C14.10291668 32.93952816 14.10720708 35.66526841 14.08642578 38.39892578 C14.08671783 39.42451096 14.08700989 40.45009613 14.08731079 41.50675964 C14.0859291 44.8613665 14.07042293 48.21574495 14.0546875 51.5703125 C14.05095324 53.91014484 14.04810822 56.24997876 14.04611206 58.58981323 C14.03850814 64.72180567 14.01888766 70.85370203 13.9967041 76.98565674 C13.97617563 83.25344544 13.96709541 89.5212498 13.95703125 95.7890625 C13.93563857 108.06775034 13.90154201 120.34636715 13.859375 132.625 C8.579375 132.625 3.299375 132.625 -2.140625 132.625 C-3.57190259 129.04680603 -4.54750069 126.25001136 -5.265625 122.5625 C-5.43320313 121.72589844 -5.60078125 120.88929688 -5.7734375 120.02734375 C-6.140625 117.625 -6.140625 117.625 -6.140625 113.625 C-6.800625 113.625 -7.460625 113.625 -8.140625 113.625 C-8.40746094 114.21539063 -8.67429687 114.80578125 -8.94921875 115.4140625 C-13.57724747 124.0024699 -23.20004639 129.88119351 -32.140625 133 C-47.73685757 137.03906785 -66.60425176 136.87926976 -80.921875 129.1171875 C-89.56286111 123.65303452 -94.14551841 116.24086852 -97.140625 106.625 C-99.46141576 94.66148705 -98.82969515 82.80910652 -92.66796875 72.0546875 C-83.17736882 58.8172077 -68.2025257 54.11249661 -52.84375 51.203125 C-42.92808032 49.65510906 -33.090064 49.32464866 -23.078125 49.0625 C-21.52928734 49.01922008 -19.98045906 48.97560308 -18.43164062 48.93164062 C-14.66806568 48.82553934 -10.90439305 48.72400464 -7.140625 48.625 C-8.0512831 31.59082617 -8.0512831 31.59082617 -15.515625 16.6875 C-24.02710694 9.99990704 -33.7261038 9.7332077 -44.140625 10.625 C-53.46766668 11.9890088 -62.22609917 14.68303482 -70.72265625 18.76953125 C-73.140625 19.625 -73.140625 19.625 -75.29296875 19.66015625 C-78.30350123 17.97349429 -78.75752798 15.418475 -79.890625 12.25 C-80.31859375 11.08726562 -80.7465625 9.92453125 -81.1875 8.7265625 C-82.140625 5.625 -82.140625 5.625 -82.140625 2.625 C-58.52561203 -8.82860302 -22.97585243 -17.27507701 0 0 Z M-69.140625 76.625 C-74.32608323 83.29201772 -76.05764286 90.31452565 -75.140625 98.625 C-73.66107659 104.95931661 -70.73217369 110.30740746 -65.19140625 113.8828125 C-55.47750842 118.59957783 -43.34396819 117.82565624 -33.140625 115.0625 C-22.98423625 111.44880363 -15.781036 104.70168681 -10.88671875 95.1875 C-6.90446333 85.41918009 -7.76251678 74.97353102 -8.140625 64.625 C-40.8004449 63.52503748 -40.8004449 63.52503748 -69.140625 76.625 Z " fill="#221E1F" transform="translate(2308.140625,2824.375)"/>
<path d="M0 0 C13.0677945 11.8349837 20.1089093 30.31896647 21.28515625 47.67578125 C21.31480469 48.54589844 21.34445312 49.41601562 21.375 50.3125 C21.41496094 51.44042969 21.45492188 52.56835938 21.49609375 53.73046875 C21.88197794 75.63507124 17.68399974 96.90232659 2.375 113.3125 C-10.38476427 125.41519999 -25.87184048 129.88025317 -43.1875 129.6875 C-44.23357422 129.69910156 -45.27964844 129.71070312 -46.35742188 129.72265625 C-61.91950098 129.66469692 -77.06666568 123.85821093 -88.3125 112.9453125 C-102.20391646 97.12974714 -107.0348616 78.29911076 -106.9375 57.5625 C-106.93258545 56.32693359 -106.9276709 55.09136719 -106.92260742 53.81835938 C-106.70208763 36.63817144 -103.17658524 21.22496054 -92.625 7.3125 C-91.85736328 6.27996094 -91.85736328 6.27996094 -91.07421875 5.2265625 C-81.49810612 -6.70358259 -66.91359207 -12.43825135 -52.125 -14.3125 C-33.02078373 -16.12098863 -15.21737091 -11.94666902 0 0 Z M-74.02734375 17.31640625 C-84.69303401 30.6419997 -85.71577841 50.55453485 -84.31640625 66.921875 C-82.59502056 81.85070667 -78.75454359 94.95209542 -66.83984375 104.80859375 C-56.63931161 111.734881 -43.78182273 112.8470479 -31.875 110.625 C-24.62097866 108.73148708 -18.55317261 104.94469727 -13.625 99.3125 C-12.944375 98.549375 -12.26375 97.78625 -11.5625 97 C-0.69538041 81.92625347 0.39804474 60.85810013 -2.15625 42.95703125 C-2.83293495 39.34927071 -3.64058268 35.84784222 -4.625 32.3125 C-4.88023438 31.39210938 -5.13546875 30.47171875 -5.3984375 29.5234375 C-8.39985361 20.62933287 -15.21175094 12.85845483 -23.40625 8.2734375 C-40.92435369 0.68637147 -60.74986908 3.25256634 -74.02734375 17.31640625 Z " fill="#221E1F" transform="translate(1954.625,2829.6875)"/>
<path d="M0 0 C15.6345975 13.11642003 22.44601905 29.79781206 24.55078125 49.90087891 C26.44360277 72.36393828 23.03414869 96.25602686 8.125 114.0625 C-2.81878075 125.24048617 -17.2919197 131.80992021 -32.92578125 132.30078125 C-35.05464207 132.31522756 -37.18359995 132.31895512 -39.3125 132.3125 C-40.36373047 132.32861328 -41.41496094 132.34472656 -42.49804688 132.36132812 C-59.39191177 132.37171157 -73.38153557 126.38469978 -85.5625 114.6640625 C-99.3961336 99.5446104 -103.55998032 79.9367677 -103.375 60 C-103.38660156 58.74960938 -103.39820312 57.49921875 -103.41015625 56.2109375 C-103.35105284 37.17963985 -97.84943164 18.68800071 -84.9375 4.3125 C-62.82405408 -16.40325634 -24.09286579 -17.75458879 0 0 Z M-68.81640625 17.88671875 C-70.36358475 19.86043769 -71.70595588 21.85278484 -73 24 C-73.56654297 24.92425781 -73.56654297 24.92425781 -74.14453125 25.8671875 C-83.1120319 42.05570928 -82.86127776 64.47420044 -79 82 C-75.75537907 92.92151648 -70.71077106 102.58327481 -61 109 C-49.3601041 114.71048185 -36.95451567 115.88415565 -24.4921875 111.96484375 C-14.62000586 108.14285494 -7.63762103 100.97884828 -3.125 91.4375 C4.27571334 73.58141647 4.95905676 49.20141164 -2.51171875 31.13671875 C-7.52090942 20.03647932 -13.65908106 13.48036304 -25 9 C-39.51441306 4.09371953 -57.88577434 6.5329656 -68.81640625 17.88671875 Z " fill="#221E1F" transform="translate(2710,2827)"/>
<path d="M0 0 C9.08973521 8.19272187 12.96147895 20.69638971 14.03125 32.54296875 C14.16064162 35.87594997 14.1581436 39.20391943 14.14477539 42.5390625 C14.14492142 43.5058342 14.14506744 44.4726059 14.1452179 45.46867371 C14.14452558 48.6392955 14.13676527 51.80985731 14.12890625 54.98046875 C14.12703965 57.188639 14.12561689 59.39680966 14.12461853 61.60498047 C14.12081243 67.39830685 14.11099851 73.1916079 14.09991455 78.98492432 C14.08965934 84.90400856 14.08511212 90.82309692 14.08007812 96.7421875 C14.06937445 108.3424608 14.05179318 119.9427087 14.03125 131.54296875 C6.77125 131.54296875 -0.48875 131.54296875 -7.96875 131.54296875 C-7.98333252 128.66215576 -7.99791504 125.78134277 -8.01293945 122.81323242 C-8.0634097 113.26578656 -8.13002655 103.71850166 -8.20446491 94.1712141 C-8.24907973 88.38604835 -8.28835539 82.60095157 -8.31518555 76.81567383 C-8.34130722 71.22639603 -8.38177211 65.63738497 -8.43193626 60.04827309 C-8.44854516 57.92221726 -8.46009648 55.79611536 -8.46636391 53.67000389 C-8.26363876 32.62725699 -8.26363876 32.62725699 -18.46875 14.85546875 C-25.90235447 9.06547532 -36.96786588 8.71018733 -45.96875 9.54296875 C-56.34772186 11.09800635 -64.93103125 13.99919763 -71.58984375 22.41796875 C-80.76909181 36.56389211 -80.27446969 53.41559319 -80.3828125 69.62890625 C-80.40156902 71.42494552 -80.42114559 73.22097639 -80.4414978 75.01699829 C-80.49235211 79.69554646 -80.53222457 84.37412306 -80.56964111 89.05279541 C-80.60997724 93.84646361 -80.66093291 98.64001838 -80.7109375 103.43359375 C-80.80714221 112.8033128 -80.89073631 122.17308057 -80.96875 131.54296875 C-88.22875 131.54296875 -95.48875 131.54296875 -102.96875 131.54296875 C-102.96875 85.67296875 -102.96875 39.80296875 -102.96875 -7.45703125 C-97.02875 -7.45703125 -91.08875 -7.45703125 -84.96875 -7.45703125 C-83.60836234 -2.69567445 -82.69514534 0.73663171 -82.34375 5.48046875 C-82.26898437 6.43824219 -82.19421875 7.39601563 -82.1171875 8.3828125 C-82.06820312 9.09566406 -82.01921875 9.80851562 -81.96875 10.54296875 C-81.30875 10.54296875 -80.64875 10.54296875 -79.96875 10.54296875 C-79.69546875 9.95128906 -79.4221875 9.35960938 -79.140625 8.75 C-74.62575598 0.24699668 -65.68014637 -4.22068062 -56.96875 -7.45703125 C-38.47140335 -12.96286736 -15.91968607 -11.78183116 0 0 Z " fill="#221E1F" transform="translate(2466.96875,2825.45703125)"/>
<path d="M0 0 C-0.55619669 4.6889493 -1.88182673 8.19924267 -4.0625 12.375 C-4.61035156 13.43460938 -5.15820312 14.49421875 -5.72265625 15.5859375 C-6.14417969 16.38257812 -6.56570313 17.17921875 -7 18 C-13.66415228 16.62120987 -20.14511847 14.84236095 -26.66796875 12.90234375 C-40.25612785 9.2225492 -55.86447478 9.1830867 -68.4375 15.8125 C-71.5089692 18.4344859 -72.76287009 20.14306559 -74 24 C-74.25650257 29.95299708 -73.07425969 34.52825157 -69 39 C-61.72896727 44.19022865 -53.69032766 47.27521998 -45.375 50.375 C-7.24690951 64.89513415 -7.24690951 64.89513415 1 80 C4.28211969 89.44749035 4.51862572 101.2610056 1.1015625 110.76171875 C-4.22670484 121.58830451 -12.85021107 127.39702412 -23.6796875 131.921875 C-32.60753676 134.82080017 -41.25902293 135.34527237 -50.60229492 135.31567383 C-52.66705075 135.31253113 -54.73034376 135.33599135 -56.79492188 135.36132812 C-69.64811982 135.42259035 -82.32490508 133.75971349 -94 128 C-95 127 -95 127 -95.11352539 124.95874023 C-95.10828857 124.08419189 -95.10305176 123.20964355 -95.09765625 122.30859375 C-95.09443359 121.36435547 -95.09121094 120.42011719 -95.08789062 119.44726562 C-95.07951172 118.45404297 -95.07113281 117.46082031 -95.0625 116.4375 C-95.05798828 115.44041016 -95.05347656 114.44332031 -95.04882812 113.41601562 C-95.03700007 110.94395151 -95.02051849 108.47200482 -95 106 C-94.12601563 106.38671875 -93.25203125 106.7734375 -92.3515625 107.171875 C-78.67198173 113.04723699 -65.44169115 116.31872461 -50.5 116.4375 C-49.60466553 116.44765137 -48.70933105 116.45780273 -47.78686523 116.46826172 C-38.63991628 116.34771724 -29.0254467 114.21676219 -22 108 C-18.90857978 102.87983526 -18.44659567 98.81074549 -19 93 C-22.01736566 84.12539512 -29.85414628 80.2413848 -37.75317383 76.31738281 C-45.77032128 72.48641835 -54.05202633 69.24851881 -62.33105469 66.0324707 C-75.67424882 60.76659801 -88.02335558 54.65756636 -94 41 C-97.44020829 31.80819347 -96.8821061 21.95531293 -93 13 C-87.35752812 2.99908029 -78.50035268 -2.5236825 -67.78515625 -5.99609375 C-45.80728982 -11.82510476 -20.64839306 -9.53002757 0 0 Z " fill="#221E1F" transform="translate(1333,2824)"/>
<path d="M0 0 C4.62 0 9.24 0 14 0 C14 10.56 14 21.12 14 32 C27.2 32 40.4 32 54 32 C54 37.61 54 43.22 54 49 C40.8 49 27.6 49 14 49 C14.03269183 64.75216585 14.03269183 64.75216585 14.11132812 80.50390625 C14.1536106 86.93380072 14.19065195 93.36341124 14.19555664 99.79345703 C14.19985285 104.98086571 14.22842543 110.1676374 14.27343178 115.35484695 C14.28636451 117.32821561 14.29072953 119.30166065 14.28615379 121.27506638 C13.89233565 135.9939088 13.89233565 135.9939088 20 149 C24.95381029 153.58492147 30.06656251 154.16698667 36.5625 154.125 C37.27470703 154.12306641 37.98691406 154.12113281 38.72070312 154.11914062 C44.1998124 154.0745144 49.55980197 153.68002475 55 153 C55 158.61 55 164.22 55 170 C47.25716312 172.39312538 40.52195046 173.47273009 32.4375 173.375 C31.47392578 173.38660156 30.51035156 173.39820312 29.51757812 173.41015625 C19.16922828 173.36828835 9.88509814 170.94855392 2 164 C-3.85412018 157.09776223 -8.13251828 148.12367038 -8.12025452 138.95037842 C-8.12162918 138.15394928 -8.12300385 137.35752014 -8.12442017 136.53695679 C-8.12082489 135.67236847 -8.11722961 134.80778015 -8.11352539 133.91699219 C-8.11367142 132.99957245 -8.11381744 132.08215271 -8.1139679 131.13693237 C-8.11327166 128.10688913 -8.10549275 125.07690749 -8.09765625 122.046875 C-8.09579104 119.94508905 -8.09436762 117.84330266 -8.09336853 115.74151611 C-8.08955144 110.21116942 -8.07972801 104.68084901 -8.06866455 99.1505127 C-8.05843309 93.50659541 -8.05386719 87.86267388 -8.04882812 82.21875 C-8.03810505 71.14581993 -8.02051475 60.07291626 -8 49 C-14.6 49 -21.2 49 -28 49 C-28 45.37 -28 41.74 -28 38 C-18.27466133 33.06884236 -18.27466133 33.06884236 -15.82202148 32.45410156 C-13.05314821 31.62565146 -11.26113954 30.82426073 -9 29 C-6.57315939 24.28793812 -5.27094364 19.34792738 -3.9375 14.25 C-3.54823405 12.87015506 -3.15568519 11.4912318 -2.75976562 10.11328125 C-1.79499156 6.75174143 -0.90083772 3.38186831 0 0 Z " fill="#231E20" transform="translate(1774,2786)"/>
<path d="M0 0 C4.29 0 8.58 0 13 0 C13 10.56 13 21.12 13 32 C26.53 32 40.06 32 54 32 C54 37.61 54 43.22 54 49 C40.47 49 26.94 49 13 49 C13.12006655 63.50791219 13.12006655 63.50791219 13.2578125 78.015625 C13.31796539 83.93844317 13.37611094 89.86123058 13.421875 95.78417969 C13.45892916 100.5629334 13.50534205 105.34151537 13.55806351 110.120121 C13.57650104 111.93719576 13.59164763 113.75430718 13.60334396 115.57143784 C13.14345255 133.98316335 13.14345255 133.98316335 21 150 C27.49907492 155.82448739 36.88842792 154.42565675 45 154 C48.35655238 153.75449677 51.6591465 153.41760669 55 153 C55 158.61 55 164.22 55 170 C47.25716312 172.39312538 40.52195046 173.47273009 32.4375 173.375 C31.47392578 173.38660156 30.51035156 173.39820312 29.51757812 173.41015625 C18.15730918 173.36419427 8.48297822 170.32415247 0.24609375 162.2890625 C-11.02652368 148.89753202 -9.14670995 129.15058224 -9.09765625 112.76953125 C-9.09578775 110.92437275 -9.09436589 109.07921374 -9.09336853 107.23405457 C-9.08957737 102.41236974 -9.0797767 97.59071574 -9.06866455 92.76904297 C-9.05837673 87.83496518 -9.05385522 82.90088233 -9.04882812 77.96679688 C-9.0381509 68.31118229 -9.02058223 58.65559855 -9 49 C-15.27 49 -21.54 49 -28 49 C-28 45.37 -28 41.74 -28 38 C-26.14715664 37.05988736 -24.29265432 36.12304408 -22.4375 35.1875 C-20.88869141 34.40439453 -20.88869141 34.40439453 -19.30859375 33.60546875 C-16 32 -16 32 -12.45898438 30.81445312 C-8.80561296 29.30868575 -8.80561296 29.30868575 -7.37915039 25.99731445 C-7.03875732 24.7980835 -6.69836426 23.59885254 -6.34765625 22.36328125 C-6.15779648 21.72384079 -5.96793671 21.08440033 -5.77232361 20.42558289 C-5.17578344 18.39449197 -4.61890727 16.35490714 -4.0625 14.3125 C-3.66338046 12.92829192 -3.26171336 11.54481571 -2.85742188 10.16210938 C-1.87021192 6.78289172 -0.9374882 3.39494027 0 0 Z " fill="#221F1F" transform="translate(2533,2786)"/>
<path d="M0 0 C-0.30944701 2.58373234 -0.62243957 5.16695133 -0.9375 7.75 C-1.02451172 8.47960938 -1.11152344 9.20921875 -1.20117188 9.9609375 C-1.62027409 13.37584442 -2.117274 16.67603543 -3 20 C-4.74023438 19.83951172 -4.74023438 19.83951172 -6.515625 19.67578125 C-19.32970747 18.63382947 -30.35084409 18.91580207 -41 27 C-41.825 27.6084375 -42.65 28.216875 -43.5 28.84375 C-52.03449864 36.20475507 -56.47281196 48.07282573 -58 59 C-58.11306279 61.71304902 -58.18409923 64.40332628 -58.20532227 67.11669922 C-58.22017166 68.30307228 -58.22017166 68.30307228 -58.23532104 69.51341248 C-58.26674188 72.11047439 -58.29161614 74.70755455 -58.31640625 77.3046875 C-58.33699257 79.11215675 -58.35798948 80.91962137 -58.37937927 82.7270813 C-58.43442665 87.47151932 -58.48391199 92.21599953 -58.53222656 96.96051025 C-58.58256857 101.80704479 -58.63818819 106.65351846 -58.69335938 111.5 C-58.80072879 120.99994982 -58.90173235 130.49995167 -59 140 C-66.26 140 -73.52 140 -81 140 C-81 94.13 -81 48.26 -81 1 C-75.06 1 -69.12 1 -63 1 C-61.3960906 2.6039094 -61.68447556 4.437602 -61.5 6.65625 C-61.37625 8.06583984 -61.37625 8.06583984 -61.25 9.50390625 C-61.08333333 11.50130208 -60.91666667 13.49869792 -60.75 15.49609375 C-60.62625 16.90568359 -60.62625 16.90568359 -60.5 18.34375 C-60.4278125 19.21193359 -60.355625 20.08011719 -60.28125 20.97460938 C-60.20856588 22.9924772 -60.20856588 22.9924772 -59 24 C-58.55011719 23.31035156 -58.10023437 22.62070313 -57.63671875 21.91015625 C-49.622612 10.20217264 -39.94806372 1.92244249 -26 -1.3125 C-17.9366448 -2.61821377 -7.77595977 -2.59198659 0 0 Z " fill="#221E1F" transform="translate(1674,2817)"/>
<path d="M0 0 C7.26 0 14.52 0 22 0 C22 45.87 22 91.74 22 139 C14.74 139 7.48 139 0 139 C0 93.13 0 47.26 0 0 Z " fill="#221F20" transform="translate(1699,2818)"/>
<path d="M0 0 C7.26 0 14.52 0 22 0 C22 45.87 22 91.74 22 139 C14.74 139 7.48 139 0 139 C0 93.13 0 47.26 0 0 Z " fill="#231F1F" transform="translate(1528,2818)"/>
<path d="M0 0 C8.91 0 17.82 0 27 0 C26.09015931 4.54920343 25.87002744 5.64145047 23.1875 8.9375 C22.55714844 9.71222656 21.92679688 10.48695313 21.27734375 11.28515625 C20.52582031 12.18105469 19.77429687 13.07695312 19 14 C18.56187988 14.52835449 18.12375977 15.05670898 17.67236328 15.60107422 C10.85358538 23.80942752 3.81318131 31.71757192 -4 39 C-4.76828125 39.75539063 -5.5365625 40.51078125 -6.328125 41.2890625 C-9.83037001 43.53172817 -12.8017199 43.44957949 -16.8125 43.25 C-17.50537109 43.23195313 -18.19824219 43.21390625 -18.91210938 43.1953125 C-20.60867664 43.14851064 -22.30452476 43.07677624 -24 43 C-23.54806182 37.9981436 -22.78954872 35.0818324 -19.625 31.1875 C-15.81443897 26.22826805 -12.48923447 21.09947961 -9.25 15.75 C-8.56091553 14.61534302 -8.56091553 14.61534302 -7.85791016 13.45776367 C-5.17031865 9.00598195 -2.58153008 4.51767763 0 0 Z " fill="#221E1F" transform="translate(1551,2758)"/>
<path d="M0 0 C3.64394177 1.68181928 5.54672673 4.15257606 7.4375 7.6875 C8.31507926 12.85546677 8.57374968 18.26519723 5.8828125 22.94140625 C4.13511861 25.08724343 2.48859226 26.75570387 0 28 C-5.08942479 28.49992739 -9.51742937 28.81692667 -14.0625 26.3125 C-18.00664308 21.60497439 -18.38773701 17.4331181 -18.25390625 11.4375 C-17.81195674 7.19478475 -16.35411492 4.24375753 -13.2265625 1.37109375 C-9.12599485 -1.15399264 -4.63894257 -0.71161782 0 0 Z " fill="#221E1F" transform="translate(1715,2767)"/>
</svg>
